<?xml version="1.0" encoding="utf-8"?>
<!-- Generator: Adobe Illustrator 16.0.0, SVG Export Plug-In . SVG Version: 6.00 Build 0)  -->
<!DOCTYPE svg PUBLIC "-//W3C//DTD SVG 1.1//EN" "http://www.w3.org/Graphics/SVG/1.1/DTD/svg11.dtd">
<svg version="1.1" id="Layer_1" xmlns="http://www.w3.org/2000/svg" xmlns:xlink="http://www.w3.org/1999/xlink" x="0px" y="0px"
	 width="700px" height="700px" viewBox="0 0 700 700" enable-background="new 0 0 700 700" xml:space="preserve">
<g>
	<g>
		<g>
			<rect x="106.511" y="268.968" fill="#ED1A3E" width="485.718" height="2.019"/>
		</g>
	</g>
	<g>
		<g>
			<rect x="106.513" y="494.605" fill="#ED1A3E" width="485.716" height="2.021"/>
		</g>
	</g>
	<g>
		<path fill="#ED1A3E" d="M604.98,202.065c-8.808-6.629-27.293-11.561-50.434-3.651c-0.335,0.117-0.514,0.479-0.399,0.82
			c0.117,0.33,0.49,0.53,0.812,0.398c22.601-9.253,40.694-2.979,49.251,3.456c4.994,3.762,8.163,8.694,7.917,13.663
			c-0.742,15.186-21.247,21.987-39.463,21.987c-15.693,0-31.224-5.143-41.556-13.751c-3.145-2.624-5.441-5.092-6.373-6.988
			c1.221-1.004,2.025-2.12,2.232-3.241c0.058-0.32,0.084-0.625,0.084-0.916c0-1.146-0.439-2.036-1.206-2.325
			c-0.855-0.322-1.757,0.066-2.288,0.979c-0.287,0.495-0.491,1.224-0.491,2.154c0,0.91,0.285,2.013,1.039,3.26
			c-2.497,2.601-6.941,5.252-15.499,5.252c-12.459,0-22.236-4.564-31.638-8.912c-3.854-1.785-7.843-3.627-12.068-5.14
			c-19.681-7.057-36.008-3.537-36.169-3.5c-0.349,0.08-0.564,0.424-0.487,0.768c0.076,0.347,0.42,0.563,0.768,0.487
			c0.158-0.036,13.954-4.523,33.269,2.401c4.169,1.496,11.314,5.182,15.14,6.949c9.122,4.214,17.561,7.452,30.294,7.769
			c9.981,0.251,13.79-2.693,16.638-5.383c1.069,2.005,4.031,5.247,7.061,7.77c10.554,8.797,24.824,14.257,40.807,14.257
			c18.806,0,39.851-7.909,40.64-23.935C613.122,211.281,610.326,206.087,604.98,202.065z M524.066,215.226
			c0-0.67,0.208-1.164,0.452-1.456c0.138-0.162,0.516-0.53,1.007-0.405c0.217,0.058,0.517,0.423,0.517,1.069
			c0,0.192-0.028,0.412-0.091,0.652c-0.187,0.701-0.68,1.42-1.361,2.132C524.229,216.45,524.066,215.772,524.066,215.226z"/>
		<path fill="#ED1A3E" d="M473.884,204.353c0.136-0.1,11.82-10.41,36.149-10.41c27.035,0,47,12.265,47.753,23.035
			c0.648,9.326-6.808,13.395-7.097,13.562c-0.307,0.181-0.407,0.571-0.232,0.876c0.181,0.311,0.573,0.414,0.88,0.234
			c0.074-0.047,7.705-4.618,6.999-14.766c-0.791-11.342-18.838-23.578-46.61-23.578c-24.778,0-38.465,9.911-38.604,10.014
			c-0.283,0.21-0.343,0.609-0.133,0.898C473.202,204.5,473.602,204.56,473.884,204.353z"/>
		<path fill="#ED1A3E" d="M464.954,228.689c-26.726-11.223-42.23-8.284-42.23-8.284s13.099-0.536,26.729,4.274
			c13.63,4.813,39.551,19.243,60.936,19.243c21.38,0,33.408-8.014,33.408-8.014C513.062,248.465,490.576,239.454,464.954,228.689z"
			/>
	</g>
	<g>
		<path fill="#ED1A3E" d="M80.125,221.778c0.789,16.023,21.834,23.934,40.639,23.934c15.981,0,30.253-5.459,40.805-14.256
			c3.029-2.523,5.993-5.764,7.062-7.772c2.846,2.692,6.658,5.636,16.638,5.385c12.735-0.316,21.174-3.555,30.292-7.77
			c3.829-1.768,10.97-5.452,15.142-6.949c19.313-6.923,33.109-2.437,33.27-2.402c0.345,0.078,0.69-0.139,0.767-0.487
			c0.077-0.343-0.142-0.686-0.487-0.766c-0.164-0.035-16.492-3.557-36.169,3.5c-4.227,1.514-8.215,3.355-12.071,5.139
			c-9.401,4.35-19.178,8.914-31.636,8.914c-8.558,0-13-2.651-15.501-5.252c0.756-1.247,1.042-2.349,1.042-3.26
			c0-0.932-0.207-1.66-0.491-2.154c-0.531-0.912-1.433-1.301-2.291-0.979c-0.764,0.289-1.204,1.18-1.204,2.325
			c0,0.292,0.028,0.597,0.085,0.914c0.204,1.122,1.009,2.239,2.231,3.242c-0.93,1.897-3.229,4.365-6.374,6.99
			c-10.332,8.606-25.866,13.75-41.555,13.75c-18.216,0-38.719-6.802-39.463-21.989c-0.245-4.968,2.922-9.899,7.916-13.662
			c8.558-6.437,26.65-12.71,49.249-3.456c0.328,0.13,0.699-0.069,0.815-0.398c0.115-0.342-0.063-0.704-0.398-0.819
			c-23.139-7.912-41.626-2.98-50.434,3.65C82.655,211.17,79.86,216.365,80.125,221.778z M168.394,222.303
			c-0.682-0.713-1.179-1.433-1.362-2.133c-0.063-0.24-0.091-0.46-0.091-0.652c0-0.646,0.3-1.011,0.517-1.069
			c0.491-0.126,0.867,0.243,1.005,0.405c0.248,0.291,0.454,0.786,0.454,1.457C168.917,220.856,168.755,221.534,168.394,222.303z"/>
		<path fill="#ED1A3E" d="M219.098,209.437c-0.134-0.1-11.82-10.411-36.147-10.411c-27.036,0-47,12.265-47.752,23.036
			c-0.649,9.326,6.809,13.394,7.096,13.561c0.307,0.183,0.408,0.572,0.23,0.877c-0.181,0.31-0.571,0.412-0.877,0.232
			c-0.078-0.046-7.705-4.617-6.998-14.765c0.79-11.342,18.836-23.578,46.608-23.578c24.781,0,38.468,9.911,38.605,10.012
			c0.281,0.213,0.344,0.611,0.131,0.899C219.781,209.583,219.381,209.642,219.098,209.437z"/>
		<path fill="#ED1A3E" d="M228.031,233.773c26.726-11.223,42.228-8.284,42.228-8.284s-13.097-0.536-26.728,4.272
			c-13.631,4.813-39.554,19.245-60.937,19.245c-21.379,0-33.407-8.015-33.407-8.015
			C179.922,253.549,202.403,244.537,228.031,233.773z"/>
	</g>
	<g>
		<path fill="#ED1A3E" d="M495.831,528.971c-6.347-4.773-19.669-8.329-36.34-2.63c-0.242,0.084-0.369,0.344-0.289,0.59
			c0.084,0.237,0.354,0.381,0.59,0.288c16.282-6.666,29.316-2.146,35.484,2.492c3.595,2.707,5.878,6.263,5.705,9.843
			c-0.539,10.941-15.312,15.843-28.438,15.843c-11.303,0-22.496-3.706-29.94-9.907c-2.267-1.892-3.92-3.669-4.59-5.038
			c0.88-0.724,1.459-1.527,1.607-2.333c0.04-0.229,0.062-0.449,0.062-0.662c0-0.826-0.319-1.465-0.872-1.674
			c-0.615-0.233-1.264,0.049-1.646,0.706c-0.209,0.354-0.354,0.881-0.354,1.551c0,0.657,0.202,1.451,0.748,2.351
			c-1.799,1.873-5.002,3.783-11.168,3.783c-8.976,0-16.021-3.289-22.794-6.422c-2.778-1.283-5.649-2.613-8.696-3.703
			c-14.179-5.082-25.942-2.546-26.061-2.522c-0.25,0.06-0.405,0.307-0.351,0.556c0.057,0.248,0.304,0.404,0.554,0.347
			c0.115-0.023,10.055-3.255,23.97,1.733c3.005,1.075,8.151,3.734,10.91,5.005c6.568,3.035,12.649,5.371,21.825,5.596
			c7.189,0.185,9.936-1.936,11.987-3.878c0.769,1.446,2.904,3.783,5.087,5.601c7.605,6.338,17.886,10.271,29.402,10.271
			c13.55,0,28.71-5.699,29.281-17.242C501.697,535.613,499.679,531.867,495.831,528.971z M437.527,538.453
			c0-0.483,0.15-0.838,0.33-1.049c0.098-0.115,0.37-0.382,0.721-0.289c0.158,0.039,0.377,0.304,0.377,0.769
			c0,0.139-0.023,0.294-0.065,0.468c-0.135,0.506-0.493,1.022-0.984,1.538C437.646,539.335,437.527,538.85,437.527,538.453z"/>
		<path fill="#ED1A3E" d="M401.373,530.619c0.097-0.069,8.518-7.501,26.043-7.501c19.48,0,33.864,8.838,34.408,16.599
			c0.468,6.718-4.904,9.652-5.112,9.77c-0.22,0.131-0.296,0.413-0.168,0.634c0.134,0.223,0.414,0.296,0.635,0.167
			c0.053-0.035,5.549-3.329,5.04-10.641c-0.568-8.17-13.57-16.987-33.583-16.987c-17.853,0-27.714,7.145-27.813,7.213
			c-0.204,0.157-0.246,0.443-0.093,0.648C400.881,530.728,401.169,530.77,401.373,530.619z"/>
		<path fill="#ED1A3E" d="M394.937,548.154c-19.255-8.085-30.427-5.971-30.427-5.971s9.438-0.387,19.259,3.082
			c9.823,3.467,28.499,13.866,43.904,13.866c15.406,0,24.073-5.775,24.073-5.775C429.601,562.402,413.401,555.911,394.937,548.154z"
			/>
	</g>
	<g>
		<path fill="#ED1A3E" d="M198.687,540.172c0.568,11.55,15.732,17.247,29.281,17.247c11.515,0,21.798-3.935,29.402-10.271
			c2.182-1.82,4.317-4.155,5.086-5.601c2.051,1.94,4.798,4.061,11.99,3.879c9.175-0.229,15.255-2.562,21.823-5.598
			c2.759-1.274,7.906-3.928,10.912-5.007c13.914-4.99,23.855-1.755,23.969-1.73c0.249,0.055,0.498-0.098,0.554-0.352
			c0.055-0.246-0.103-0.492-0.352-0.55c-0.116-0.029-11.88-2.564-26.058,2.521c-3.047,1.092-5.921,2.416-8.7,3.701
			c-6.773,3.136-13.817,6.426-22.794,6.426c-6.163,0-9.366-1.915-11.167-3.786c0.545-0.899,0.75-1.695,0.75-2.347
			c0-0.674-0.148-1.197-0.354-1.555c-0.383-0.66-1.032-0.938-1.65-0.706c-0.55,0.207-0.867,0.849-0.867,1.677
			c0,0.207,0.018,0.428,0.062,0.658c0.146,0.811,0.726,1.612,1.607,2.335c-0.67,1.367-2.327,3.145-4.593,5.037
			c-7.444,6.199-18.636,9.904-29.94,9.904c-13.125,0-27.898-4.897-28.435-15.841c-0.176-3.579,2.105-7.135,5.705-9.843
			c6.165-4.638,19.199-9.158,35.483-2.491c0.236,0.097,0.503-0.049,0.586-0.285c0.083-0.249-0.046-0.51-0.287-0.59
			c-16.672-5.699-29.993-2.151-36.338,2.63C200.511,532.53,198.497,536.273,198.687,540.172z M262.285,540.551
			c-0.489-0.511-0.848-1.03-0.981-1.534c-0.045-0.174-0.064-0.333-0.064-0.471c0-0.467,0.216-0.729,0.371-0.772
			c0.355-0.089,0.625,0.179,0.726,0.296c0.179,0.208,0.326,0.565,0.326,1.045C262.662,539.507,262.547,539.999,262.285,540.551z"/>
		<path fill="#ED1A3E" d="M298.818,531.283c-0.097-0.072-8.516-7.503-26.044-7.503c-19.48,0-33.863,8.838-34.405,16.597
			c-0.468,6.72,4.905,9.649,5.113,9.771c0.22,0.133,0.293,0.413,0.165,0.633c-0.129,0.224-0.41,0.298-0.632,0.168
			c-0.056-0.031-5.551-3.325-5.043-10.639c0.57-8.173,13.573-16.987,33.583-16.987c17.855,0,27.716,7.139,27.814,7.214
			c0.204,0.15,0.249,0.439,0.096,0.647C299.312,531.388,299.022,531.43,298.818,531.283z"/>
		<path fill="#ED1A3E" d="M305.254,548.817c19.258-8.088,30.427-5.97,30.427-5.97s-9.437-0.387-19.257,3.081
			c-9.821,3.468-28.499,13.863-43.906,13.863c-15.404,0-24.069-5.776-24.069-5.776C270.593,563.066,286.79,556.572,305.254,548.817z
			"/>
	</g>
	<text transform="matrix(1 -0.0017 0.0017 1 83.9229 342.7646)" fill="#ED1A3E" font-family="'Herculanum'" font-size="59.9512">DWARKESH BAKERS</text>
	<text transform="matrix(1 0 0 1 135.7656 459.3906)" fill="#ED1A3E" font-family="'Riesling'" font-size="57.4446">cake, cookies &amp; more...</text>
	<g>
		<g>
			<rect x="130.17" y="376.307" fill="#ED1A3E" width="1.708" height="3.411"/>
		</g>
		<g>
			<path fill="#ED1A3E" d="M560.59,379.718h-3.397v-3.411h3.397V379.718z M550.384,379.718h-3.405v-3.411h3.405V379.718z
				 M540.181,379.718h-3.41v-3.411h3.41V379.718z M529.974,379.718h-3.404v-3.411h3.404V379.718z M519.761,379.718h-3.399v-3.411
				h3.399V379.718z M509.553,379.718h-3.405v-3.411h3.405V379.718z M499.352,379.718h-3.41v-3.411h3.41V379.718z M489.144,379.718
				h-3.405v-3.411h3.405V379.718z M478.93,379.718h-3.397v-3.411h3.397V379.718z M468.729,379.718h-3.41v-3.411h3.41V379.718z
				 M458.521,379.718h-3.409v-3.411h3.409V379.718z M448.312,379.718h-3.403v-3.411h3.403V379.718z M438.102,379.718h-3.402v-3.411
				h3.402V379.718z M427.896,379.718h-3.407v-3.411h3.407V379.718z M417.688,379.718h-3.403v-3.411h3.403V379.718z M407.482,379.718
				h-3.405v-3.411h3.405V379.718z M397.271,379.718h-3.401v-3.411h3.401V379.718z M387.067,379.718h-3.407v-3.411h3.407V379.718z
				 M376.859,379.718h-3.405v-3.411h3.405V379.718z M366.649,379.718h-3.401v-3.411h3.401V379.718z M356.438,379.718h-3.397v-3.411
				h3.397V379.718z M346.234,379.718h-3.405v-3.411h3.405V379.718z M336.026,379.718h-3.401v-3.411h3.401V379.718z M325.819,379.718
				h-3.402v-3.411h3.402V379.718z M315.608,379.718h-3.398v-3.411h3.398V379.718z M305.403,379.718h-3.401v-3.411h3.401V379.718z
				 M295.197,379.718h-3.403v-3.411h3.403V379.718z M284.989,379.718h-3.401v-3.411h3.401V379.718z M274.778,379.718h-3.396v-3.411
				h3.396V379.718z M264.574,379.718h-3.402v-3.411h3.402V379.718z M254.366,379.718h-3.4v-3.411h3.4V379.718z M244.162,379.718
				h-3.405v-3.411h3.405V379.718z M233.951,379.718h-3.398v-3.411h3.398V379.718z M223.744,379.718h-3.402v-3.411h3.402V379.718z
				 M213.536,379.718h-3.401v-3.411h3.401V379.718z M203.331,379.718h-3.404v-3.411h3.404V379.718z M193.121,379.718h-3.398v-3.411
				h3.398V379.718z M182.913,379.718h-3.401v-3.411h3.401V379.718z M172.706,379.718h-3.402v-3.411h3.402V379.718z M162.501,379.718
				H159.1v-3.411h3.402V379.718z M152.291,379.718h-3.399v-3.411h3.399V379.718z M142.083,379.718h-3.401v-3.411h3.401V379.718z"/>
		</g>
		<g>
			<rect x="567.393" y="376.307" fill="#ED1A3E" width="1.712" height="3.411"/>
		</g>
	</g>
	<g>
		<polygon fill="#ED1A3E" points="349.924,362.914 355.919,375.057 369.317,377.006 359.621,386.459 361.91,399.805 
			349.924,393.505 337.937,399.805 340.227,386.459 330.531,377.006 343.927,375.057 		"/>
	</g>
	<g>
		<path fill="#ED1A3E" d="M393.233,183.783c-4.246-7.336-12.355-3.088-12.355-3.088s3.474-6.948-3.091-11.583
			c-6.558-4.637-13.124,0-13.124,0s-8.881-6.178-9.267-11.197c-0.386-5.021,3.862-11.196,3.862-11.196
			c-16.217-2.318-24.712,17.756-24.712,17.756s-9.652,0.773-14.281,5.026c-4.637,4.246-4.637,10.42-4.637,10.42
			s-5.019-3.475-8.496,2.704c-5.017,11.971,3.862,22.101,40.541,22.101C384.354,204.727,397.481,191.122,393.233,183.783z"/>
		<g>
			<path fill="#ED1A3E" d="M340.855,209.306c0.416,1.032,1.916,40.131,1.168,40.947c-0.752,0.817-3.764,0.839-6.073-1.469
				c-2.307-2.302-8.227-35.869-7.791-38.32c0.431-2.455,2.973-4.053,6.769-4.186C338.724,206.145,340.441,208.279,340.855,209.306z"
				/>
			<path fill="#ED1A3E" d="M332.232,247.373c0.395-0.554-7.284-38.181-8.154-39.734c-0.872-1.55-2.745-3.197-6.915-2.87
				c-3.147,0.304-3.98,1.882-4.48,3.233c-0.502,1.35,11.209,36.852,13.301,38.49C328.081,248.132,331.841,247.924,332.232,247.373z"
				/>
			<path fill="#ED1A3E" d="M356.325,209.512c-1.866-2.544-10.934-2.544-12.8,0c-1.869,2.547,1.333,39.984,3.078,41.247
				c1.74,1.256,4.903,1.256,6.646,0C354.991,249.496,358.19,212.059,356.325,209.512z"/>
			<path fill="#ED1A3E" d="M358.994,209.306c-0.418,1.032-1.916,40.131-1.167,40.947c0.749,0.817,3.762,0.839,6.072-1.469
				c2.31-2.302,8.225-35.869,7.793-38.32c-0.435-2.455-2.976-4.053-6.773-4.186C361.125,206.145,359.409,208.279,358.994,209.306z"
				/>
			<path fill="#ED1A3E" d="M367.615,247.373c-0.394-0.554,7.287-38.181,8.158-39.734c0.868-1.55,2.741-3.197,6.915-2.87
				c3.145,0.304,3.98,1.882,4.479,3.233c0.498,1.35-11.21,36.852-13.303,38.49C371.769,248.132,368.006,247.924,367.615,247.373z"/>
		</g>
	</g>
</g>
</svg>
