<?xml version="1.0" encoding="utf-8"?>
<!-- Generator: Adobe Illustrator 16.0.0, SVG Export Plug-In . SVG Version: 6.00 Build 0)  -->
<!DOCTYPE svg PUBLIC "-//W3C//DTD SVG 1.1//EN" "http://www.w3.org/Graphics/SVG/1.1/DTD/svg11.dtd">
<svg version="1.1" id="Layer_1" xmlns="http://www.w3.org/2000/svg" xmlns:xlink="http://www.w3.org/1999/xlink" x="0px" y="0px"
	 width="600px" height="600px" viewBox="0 0 600 600" enable-background="new 0 0 600 600" xml:space="preserve">
<path opacity="0.2" fill="#210008" d="M294.546,504.914c0,0-250.027,9.287-257.567,26.089s92.678,32.555,206.796,25.733
	S338.56,522.764,294.546,504.914z"/>
<g>
	<path opacity="0.2" fill="#210008" d="M591.326,560.005c0,0-0.554-7.58-5.972-10.077c-5.417-2.498-7.998-1.552-8.558-4.34
		c-0.561-2.791-5.525-7.818-9.039-5.404c-3.515,2.412-8.512,7.496-14.999,11.257c-6.488,3.76-16.517,15.214-6.04,24.088
		C557.191,584.403,594.708,580.472,591.326,560.005z"/>
	<path fill="#53161C" d="M590.408,558.094c0,0-0.553-7.579-5.972-10.076c-5.418-2.498-7.997-1.553-8.558-4.342
		c-0.56-2.79-5.525-7.818-9.04-5.403c-3.514,2.413-8.51,7.495-14.998,11.257c-6.489,3.759-16.516,15.213-6.04,24.087
		C556.273,582.491,593.79,578.561,590.408,558.094z"/>
	<path fill="#36030F" d="M590.408,558.094c0,0-0.062-0.827-0.335-2.021c-3.671,15.508-35.033,17.906-44.467,9.913
		c-1.828-1.549-3.022-3.178-3.728-4.83c-1.334,4.062-0.734,8.516,3.922,12.46C556.273,582.491,593.79,578.561,590.408,558.094z"/>
	<path opacity="0.2" fill="#B98182" d="M566.648,540.605c0,0,4.588-3.02,4.21,0.581s2.117,6.036,5.965,6.497
		c3.845,0.462,10.913,3.888,8.129,9.822c-2.783,5.933-41.526,7.576-37.318-0.201C551.841,549.529,564.747,541.075,566.648,540.605z"
		/>
	<path opacity="0.4" fill="#B98182" d="M551.771,553.77c0,0,11.896-13.354,16.503-13.117c4.604,0.237,9.671,5.427,6.467,6.504
		c-3.204,1.078-9.02-0.584-11.793,1.539c-2.772,2.124-11.271,5.405-11.271,5.405"/>
</g>
<g>
	<path opacity="0.2" fill="#210008" d="M144.064,584.923c0.677-0.312,6.981-1.918,4.646-9.019
		c-2.335-7.102-18.418-8.771-20.578-13.688c-2.16-4.92-5.398-15.748-7.619-11.491c-2.219,4.257-3.616,14.805-8.04,18.524
		c-4.423,3.719-11.534,11.176-10.837,19.207c0.697,8.032,7.54,10.252,19.101,3.291C132.3,584.785,137.62,587.891,144.064,584.923z"
		/>
	<path fill="#53161C" d="M143.415,583.236c0.678-0.311,6.983-1.914,4.647-9.016c-2.336-7.104-18.418-8.771-20.578-13.69
		s-5.398-15.747-7.619-11.49c-2.221,4.258-3.615,14.805-8.04,18.526c-4.423,3.718-11.534,11.174-10.839,19.206
		c0.699,8.031,7.543,10.253,19.103,3.29C131.65,583.101,136.973,586.207,143.415,583.236z"/>
	<path fill="#36030F" d="M142.658,576.548c-6.443,2.971-11.765-0.137-23.326,6.824c-9.615,5.793-15.965,5.224-18.231,0.249
		c-0.157,1.035-0.205,2.088-0.114,3.151c0.699,8.031,7.543,10.253,19.103,3.29c11.562-6.962,16.885-3.855,23.326-6.826
		c0.678-0.311,6.983-1.914,4.647-9.016c-0.166-0.504-0.408-0.979-0.702-1.431C146.183,575.523,143.119,576.335,142.658,576.548z"/>
	<path opacity="0.2" fill="#B98182" d="M119.982,551.396c0,0,1.008-1.077,1.378-0.118c0.368,0.956,3.13,10.419,5.524,12.051
		c2.394,1.631,17.363,8.194,14.75,10.588c-2.609,2.388-8.084,0.052-14.241,2.826c-6.156,2.772-21.673,9.585-23.101,6.922
		c-1.426-2.663,2.713-9.178,6.77-12.417c4.059-3.241,6.848-8.503,7.121-11.754C118.458,556.246,119.982,551.396,119.982,551.396z"/>
	<path opacity="0.5" fill="#B98182" d="M119.072,558.986c0,0,0.371,7.024-2.807,9.44c-3.176,2.418-4.295,4.386-3.889,5.047
		c0.406,0.657,5.811-1.64,7.292-6.086C121.151,562.938,119.337,559.15,119.072,558.986z"/>
</g>
<g>
	<path fill="#BA915F" d="M504.18,520.815c-2.599-3.805-0.003-3.419-13.678-18.072c-13.678-14.655-81.576-42.499-118.701-45.429
		c-37.123-2.931-43.962-2.931-68.873-2.931c-24.913,0-17.587-10.746-59.106,4.885c-41.52,15.632-56.663,39.077-56.663,51.288
		c0,12.213,4.885,32.729,25.889,40.545c21.006,7.815,46.895,22.958,124.072,22.958c77.18,0,105.022,3.908,134.821-10.747
		C501.736,548.658,512.506,533.011,504.18,520.815z"/>
	<g>
		<path fill="#AA804A" d="M471.94,563.312c29.796-14.654,40.565-30.302,32.239-42.497c-1.337-1.955-1.312-2.817-2.821-5.176
			c6.391,12.347-11.082,26.004-46.822,37.024c-39.774,12.261-29.566,7.447-58.782-2.408c-29.215-9.855-44.703,12.671-136.219-3.871
			c-49.566-8.961-65.776-28.349-70.229-44.912c-1.462,3.409-2.148,6.503-2.148,9.084c0,12.213,4.885,32.729,25.889,40.545
			c21.006,7.815,46.895,22.958,124.072,22.958C414.299,574.06,442.142,577.968,471.94,563.312z"/>
		<path fill="#AA804A" d="M498.253,511.477c-0.411-0.503-0.866-1.047-1.365-1.633C497.251,510.357,497.682,510.895,498.253,511.477z
			"/>
	</g>
	<path opacity="0.2" fill="#210008" d="M218.123,494.688c2.729-0.015,27.451,0,32.409-7.624c4.958-7.625,9.724-14.299-5.911-12.774
		c-15.632,1.524-29.93,4.387-34.123,12.584C206.302,495.07,209.316,494.741,218.123,494.688z"/>
	<g>
		<path fill="#6E4216" d="M501.878,516.494c-0.153-0.263-0.322-0.543-0.52-0.854c0.173,0.338,0.323,0.675,0.462,1.015
			C501.841,516.602,501.856,516.546,501.878,516.494z"/>
		<path fill="#6E4216" d="M471.94,555.044c-29.799,14.653-57.642,10.744-134.821,10.744c-77.178,0-103.066-15.142-124.072-22.958
			c-18.193-6.77-24.284-23.062-25.589-35.238c-0.18,1.042-0.3,2.045-0.3,2.965c0,12.213,4.885,32.729,25.889,40.545
			c21.006,7.815,46.895,22.958,124.072,22.958c77.18,0,105.022,3.908,134.821-10.747c26.343-12.954,37.784-26.686,34.337-38.12
			C503.621,534.672,492.186,545.085,471.94,555.044z"/>
	</g>
	<path opacity="0.2" fill="#210008" d="M343.222,522.414c-3.893-3.05-21.543-12.483-29.36-7.77
		c-7.815,4.72-16.014,6.434-13.346,12.155c2.67,5.72,22.688,12.201,38.512,12.011C354.851,538.62,354.661,531.376,343.222,522.414z"
		/>
	<path fill="#53161C" d="M218.123,492.208c2.729-0.017,27.451,0,32.409-7.624c4.958-7.627,9.724-14.299-5.911-12.773
		c-15.632,1.524-29.93,4.384-34.123,12.581C206.302,492.591,209.316,492.261,218.123,492.208z"/>
	<path fill="#53161C" d="M343.95,520.425c-3.894-3.05-21.543-12.484-29.36-7.77c-7.814,4.72-16.014,6.434-13.345,12.154
		c2.669,5.72,22.688,12.202,38.511,12.011C355.58,536.63,355.39,529.386,343.95,520.425z"/>
	<path opacity="0.2" fill="#210008" d="M344.017,462.758c-4.584-2.416-24.021-8.77-30.884,0c-6.863,8.768-6.674,10.102-2.289,13.154
		c4.386,3.05,22.688,5.146,26.311,4.574c3.622-0.571,4.819-0.762,9.75-3.241C351.834,474.769,347.641,464.664,344.017,462.758z"/>
	<path opacity="0.2" fill="#210008" d="M444.267,485.54c0.085-0.597-5.72-10.676-10.677-14.3
		c-4.957-3.621-4.766-13.536-10.104-12.392c-5.339,1.143-11.325,1.052-20.399,2.287c-9.074,1.237-17.922,2.277-14.489,7.239
		c3.431,4.965,17.349,8.966,24.975,11.159C421.198,481.727,443.694,489.544,444.267,485.54z"/>
	<path fill="#53161C" d="M344.144,460.754c-4.584-2.414-24.021-8.771-30.886,0c-6.862,8.77-6.674,10.101-2.288,13.153
		c4.387,3.053,22.688,5.146,26.311,4.577c3.621-0.574,4.82-0.766,9.75-3.243S347.767,462.66,344.144,460.754z"/>
	<path fill="#53161C" d="M445.949,484.584c0.085-0.597-5.719-10.675-10.676-14.299c-4.958-3.624-4.767-13.536-10.104-12.392
		c-5.339,1.144-11.326,1.051-20.399,2.287c-9.074,1.235-17.921,2.276-14.49,7.238c3.432,4.963,17.349,8.966,24.976,11.157
		C422.881,480.771,445.378,488.59,445.949,484.584z"/>
	<path opacity="0.2" fill="#210008" d="M453.956,522.318c-3.639,0.169-20.4,5.53-23.641,9.724s-9.151,13.154-6.481,16.395
		c2.669,3.242,20.018,5.722,31.076,0c11.057-5.72,13.152-7.627,13.152-14.298S466.35,521.743,453.956,522.318z"/>
	<path opacity="0.2" fill="#210008" d="M264.644,554.92c-0.52-1.833-6.103-21.161-15.443-22.305s-12.568,2.396-23.157,3.009
		c-10.588,0.614-12.875,4.808-9.253,9.004c3.623,4.193,9.342,9.724,19.255,12.011S266.085,560.016,264.644,554.92z"/>
	<path fill="#53161C" d="M453.956,520.425c-3.639,0.169-20.4,5.53-23.641,9.724c-3.24,4.194-9.151,13.155-6.481,16.396
		c2.669,3.241,20.018,5.722,31.076,0c11.057-5.721,13.152-7.627,13.152-14.299C468.062,525.574,466.35,519.852,453.956,520.425z"/>
	<path fill="#53161C" d="M264.644,552.266c-0.52-1.836-6.103-21.164-15.443-22.308s-12.568,2.396-23.157,3.009
		c-10.588,0.612-12.875,4.807-9.253,9c3.623,4.196,9.342,9.724,19.255,12.012S266.085,557.357,264.644,552.266z"/>
	<circle fill="#6E4216" cx="279.42" cy="470.216" r="1.869"/>
	<circle fill="#6E4216" cx="290.953" cy="476.657" r="2.455"/>
	<circle fill="#6E4216" cx="246.378" cy="500.342" r="1.132"/>
	<path fill="#6E4216" d="M262.907,500.268c0,0.819-0.667,1.485-1.488,1.485s-1.489-0.666-1.489-1.485
		c0-0.823,0.668-1.489,1.489-1.489S262.907,499.444,262.907,500.268z"/>
	<circle fill="#6E4216" cx="266.746" cy="510.253" r="0.407"/>
	<circle fill="#6E4216" cx="208.536" cy="504.913" r="2.002"/>
	<ellipse fill="#6E4216" cx="218.815" cy="513.499" rx="0.534" ry="0"/>
	<circle fill="#6E4216" cx="276.75" cy="538.803" r="0.8"/>
	<circle fill="#6E4216" cx="299.711" cy="550.113" r="3.738"/>
	<circle fill="#6E4216" cx="365.389" cy="488.911" r="3.204"/>
	<circle fill="#6E4216" cx="377.671" cy="499.413" r="1.068"/>
	<circle fill="#6E4216" cx="364.588" cy="460.368" r="0.801"/>
	<circle fill="#6E4216" cx="400.898" cy="483.327" r="2.136"/>
	<circle fill="#6E4216" cx="432.909" cy="493.425" r="1.308"/>
	<circle fill="#6E4216" cx="453.832" cy="497.738" r="0.606"/>
	<path fill="#6E4216" d="M400.898,520.964c0,1.328-1.076,2.406-2.402,2.406c-1.327,0-2.402-1.078-2.402-2.406
		c0-1.325,1.075-2.4,2.402-2.4C399.822,518.563,400.898,519.639,400.898,520.964z"/>
	<circle fill="#6E4216" cx="340.959" cy="499.003" r="1.263"/>
	<circle fill="#6E4216" cx="363.181" cy="525.087" r="0.995"/>
	<circle fill="#6E4216" cx="364.676" cy="543.703" r="0.889"/>
	<path fill="#6E4216" d="M339.696,553.554c0,0.762-0.62,1.382-1.384,1.382c-0.765,0-1.384-0.62-1.384-1.382
		c0-0.768,0.619-1.386,1.384-1.386C339.076,552.168,339.696,552.786,339.696,553.554z"/>
	<circle fill="#6E4216" cx="393.991" cy="552.524" r="2.411"/>
	<circle fill="#6E4216" cx="479.922" cy="514.621" r="1.122"/>
	<circle fill="#6E4216" cx="484.066" cy="524.588" r="0.498"/>
	<path fill="#36030F" d="M343.95,520.425c-0.138-0.109-0.331-0.24-0.503-0.363c5.322,4.167,8.607,11.516-3.751,13.172
		c-12.412,1.661-32.952-5.188-33.232-9.863c-0.28-4.676,4.571-8.744,4.571-8.744l-0.002-0.003
		c-6.504,3.361-12.051,5.337-9.788,10.187c2.669,5.72,22.688,12.202,38.511,12.011C355.58,536.63,355.39,529.386,343.95,520.425z"/>
	<path opacity="0.3" fill="#B98182" d="M318.803,512.655c-3.626,0.178-9.814,3.821-9.185,6.415
		c0.631,2.595,5.397,8.063,12.199,8.834c6.802,0.772,23.139,1,19.492-3.812S328.198,512.199,318.803,512.655z"/>
	<path opacity="0.3" fill="#B98182" d="M313.802,515.611c0,0,2.867-3.539,9.815-1.823c6.949,1.715,11.874,5.843,9.816,6.03
		c-2.058,0.187-14.21-4.442-16.594-3.787C314.456,516.688,312.89,516.406,313.802,515.611z"/>
	<path fill="#36030F" d="M264.644,552.266c-0.408-1.439-3.938-13.596-9.938-19.347c1.544,1.783,3.117,4.749,4.945,9.291
		c2.742,6.823-2.532,11.396-16.062,10.266c-13.53-1.135-25.021-7.493-25.858-12.064c-0.556-3.027,0.847-5.182,1.938-6.383
		c-4.981,1.633-5.602,4.784-2.878,7.938c3.623,4.196,9.342,9.724,19.255,12.012S266.085,557.357,264.644,552.266z"/>
	<path opacity="0.3" fill="#B98182" d="M221.205,536.458c0.171,1.28,0.632,4.698,3.576,7.293c2.944,2.594,19.071,6.59,25.311,5.329
		c6.241-1.263,7.783-3.296,5.539-7.013c-2.244-3.716-0.561-8.903-8.693-8.623c-8.134,0.28-11.851,2.033-15.846,1.753
		C227.095,534.916,220.871,533.957,221.205,536.458z"/>
	<path opacity="0.3" fill="#B98182" d="M241.258,535.688c0,0,4.697-2.663,8.273-0.49c3.575,2.174,3.295,4.015,3.855,6.178
		c0.561,2.165,0.491,3.356-0.49,3.988c-0.982,0.631-3.296-1.543-4.067-4.697C248.059,537.511,238.018,537.796,241.258,535.688z"/>
	<path fill="#36030F" d="M252.099,471.924c1.91,1.447-4.871,12.69-13.532,15.495c-8.71,2.818-26.006,2.73-26.817-0.258
		c-0.792-2.91,0.53-5.093,0.595-5.382c-0.734,0.806-1.365,1.67-1.846,2.612c-4.196,8.199-1.182,7.869,7.625,7.816
		c2.729-0.017,27.451,0,32.409-7.624C254.41,478.619,258.122,473.257,252.099,471.924z"/>
	<path opacity="0.3" fill="#B98182" d="M214.773,486.337c0,0-0.868-6.309,6.672-8.957c7.539-2.651,24.872-5.85,24.933-4.159
		c0.062,1.692-9.624,3.52-13.281,7.585C229.442,484.873,214.37,489.522,214.773,486.337z"/>
	<path opacity="0.3" fill="#B98182" d="M215.515,484.531c0,0,1.222-5.775,7.626-7.032c6.402-1.258-0.038,1.297-2.852,3.203
		C217.477,482.607,215.106,486.494,215.515,484.531z"/>
	<path fill="#36030F" d="M347.578,464.791c2.838,8.177-7.028,10.796-13.391,11.354c-6.368,0.559-18.232-1.035-20.858-4.554
		c-2.39-3.203-0.229-9.857,0.351-11.223c0.022-0.056,0.03-0.061,0.048-0.101c-0.151,0.169-0.328,0.307-0.47,0.486
		c-6.862,8.77-6.674,10.101-2.288,13.153c4.387,3.053,22.688,5.146,26.311,4.577c3.621-0.574,4.82-0.766,9.75-3.243
		C350.324,473.585,349.537,468.533,347.578,464.791z"/>
	<path opacity="0.3" fill="#B98182" d="M314.83,466.719c0.009-0.28-0.935-7.664,8.226-8.414c9.163-0.747,10.379,1.039,13.369,2.063
		c2.991,1.021,8.787,5.211,8.227,7.978c-0.561,2.768-5.61,7.535-11.124,5.197c-5.516-2.337-7.947-2.243-12.434-2.524
		C316.606,470.738,314.784,468.51,314.83,466.719z"/>
	<path opacity="0.3" fill="#B98182" d="M319.691,461.67c0,0,5.422-3.554,10.564-2.103c5.142,1.45,8.974,3.877,7.104,4.535
		c-1.871,0.652-3.726-1.872-8.594-1.216C323.897,463.542,316.87,463.068,319.691,461.67z"/>
	<path fill="#36030F" d="M415.255,478.576c7.626,2.195,30.123,10.014,30.694,6.008c0.059-0.403-2.571-5.123-5.81-9.267
		c0.125,0.178,3.473,5.049,1.111,6.431c-2.405,1.407-9.69-2.125-15.13-7.054c-5.44-4.931-6.971-1.957-15.386-1.363
		c-8.415,0.596-15.753-2.144-14.642-8.074c0.383-2.049,1.646-3.392,3.128-4.287c-6.683,1.055-11.655,2.525-8.942,6.449
		C393.711,472.382,407.628,476.385,415.255,478.576z"/>
	<path opacity="0.3" fill="#B98182" d="M424.954,459.567c0,0-21.805-0.583-23.137,3.413c-1.333,3.997,4.696,6.66,9.956,5.608
		c5.257-1.051,6.52-4.373,10.797-1.17s9.297,7.621,9.03,3.835c-0.266-3.785-3.632-11.008-4.614-11.358
		C426.006,459.545,424.954,459.567,424.954,459.567z"/>
	<path opacity="0.3" fill="#B98182" d="M404.644,463.888c0,0,0.458-2.984,6.78-3.287c6.321-0.304,8.446,0.456,6.574,1.113
		C416.128,462.372,403.034,467.071,404.644,463.888z"/>
	<path fill="#36030F" d="M468.062,532.245c0-5.913-1.362-11.07-10.295-11.768c3.051,1.924,9.258,7.136,3.364,15.141
		c-7.571,10.282-31.092,11.801-33.654,7.383c-1.669-2.881-1.598-5.311-1.345-6.67c-2.286,3.932-3.968,8.188-2.299,10.213
		c2.669,3.241,20.018,5.722,31.076,0C465.967,540.823,468.062,538.917,468.062,532.245z"/>
	<path opacity="0.3" fill="#B98182" d="M431.273,536.866c0.17-0.3,0.946-7.238,9.47-10.756c8.522-3.517,11.77-7.04,15.084-2.74
		c3.314,4.296,5.817,10.587-0.812,12.414c-6.629,1.827-11.364,2.437-15.828,4.734C434.723,542.817,429.245,540.451,431.273,536.866z
		"/>
	<path opacity="0.3" fill="#B98182" d="M433.021,536.473c0,0,1.778-5.729,5.165-8.03c3.384-2.302,6.033-1.952,4.903,0
		c-1.128,1.952-6.769,9.243-8.724,10.328C432.412,539.854,432.579,537.684,433.021,536.473z"/>
	<path fill="#93632D" d="M364.676,507.592c2.226,2.505,0.405,5.497,3.917,8.151c3.73,2.82,4.925,3.38,8.011,4.082
		c3.084,0.7,2.917-12.337,4.459-9.981c1.543,2.355,0.702,5.313,3.646,5.796c2.944,0.486,3.46-1.262,4.815-2.984
		c0.922-1.167,7.945-5.554,12.355-8.247c2.084-1.271,3.583-2.165,3.583-2.165s-5.548,4.247-6.7,5.349
		c-1.153,1.103-2.085,2.093-2.669,3.07c-0.587,0.977-1.709,0.412-2.831,2.654c-1.121,2.249,1.402,7.262,1.684,8.962
		c0.28,1.701,4.347,4.935,4.486,6.052c0.141,1.118,13.462,2.655,12.621,3.076c-0.842,0.425-0.702,0.565-4.908,0.565
		c-4.207,0-9.568-0.981-10.743-2.665c-1.176-1.683,0.139-0.841-2.411-3.225c-2.551-2.384-4.233-4.899-6.898-4.693
		c-2.664,0.206-5.048-0.346-5.749,0c-0.7,0.347-1.122,2.029-0.842,4.693s1.964,9.146,1.964,10.743c0,1.597,0,2.951,0,4.237
		s2.104,9.542-0.562,0.365c-2.664-9.175-2.523-11.551-2.523-13.098c0-1.546-0.723-2.848-0.642-3.742c0.08-0.89,0-2.31,0-2.31
		s1.623,1.324-3.565,1.092c-5.188-0.232-14.724-1.981-22.016-7.627c-7.292-5.646-8.555-8.151-8.555-8.151s9.396,7.565,11.5,8.048
		c2.104,0.486-3.927,0,3.225,1.015s8.554,1.015,8.554,1.015s-3.628-5.513-3.706-6.192
		C364.097,510.797,364.676,507.592,364.676,507.592z"/>
	<path fill="#93632D" d="M264.715,460.531c1.741-0.578,2.384-2.83,8.275-2.73c2.948,0.053,6.246-0.264,8.888-0.626
		c2.642-0.364,4.628-0.771,4.948-0.912c0.639-0.283,8.893-0.283,4.126,0c-4.766,0.281-14.583,3.044-11.531,4.005
		c3.049,0.964,13.986,5.857,13.986,5.857s0.434,1.204,0,1.294s5.26,1.164-2.455-1.294c-7.714-2.459-7.841-2.588-8.354-2.715
		s-2.386-0.153-3.178-0.652c-0.793-0.501-4.636,0.333-4.253,1.453c0.385,1.121,1.948,6.749,2.383,7.713
		c0.436,0.964,0.437,1.35,1.204,3.272c0.769,1.92-1.768,2.434-2.805-0.385c-1.038-2.819-2.704-9.151-4.113-9.828
		c-1.409-0.678-8.44-1.317-11.907-1.317c-3.465,0-1.415,0.962-6.795,0.545c-5.382-0.415-6.406-1.209-2.435-1.453
		c3.971-0.246-2.577-0.501,4.604-0.501C262.485,462.257,264.715,460.531,264.715,460.531z"/>
	<path fill="#93632D" d="M214.743,502.912c0,0,2.023,1.906,8.38-1.159c6.356-3.063,8.343-3.449,8.846-2.975
		c0.502,0.473,0.5,2.904-3.052,3.465c-3.552,0.562-6.025,1.788-5.443,2.67c0.583,0.882,3.658,2.379,8.479,3.687
		c4.818,1.308,22.021,4.146,19.028,4.036s-13.269-1.102-17.946-2.381c-4.677-1.28-8.042-2.663-8.042-2.663s-0.747-0.489-2.618,0.822
		c-1.87,1.308,0.188,1.713-5.608,4.222s-6.175,2.988-8.136,5.928c-1.961,2.938-5.327,2.015-5.327,1.262
		c0-0.755,3.174-2.191,5.327-4.558c2.152-2.366,4.396-0.84,5.331-2.632c0.934-1.792,1.331-1.86,1.508-3.041
		c0.175-1.181-0.55-2.68,0-3.612C216.017,505.048,214.743,502.912,214.743,502.912z"/>
	<path fill="#93632D" d="M486.433,499.172c-6.86-5.261-18.585-11.564-32.432-17.683c-0.235,0.29-0.342,0.475-0.169,0.417
		c0.645-0.21,7.676,5.828,8.797,7.007c1.122,1.177,1.598,3.731-1.725,4.51c-3.324,0.779-5.382,1.311-5.382,1.311
		s3.928,0.342,7.293-1.311c3.365-1.65,8.601-1.199,8.601-1.199s3.738,0.796,4.3,1.199
		C476.255,493.813,485.688,498.78,486.433,499.172z"/>
	<path opacity="0.3" fill="#210008" d="M289.058,457.801c0,0-87.382,7.925-90.866,21.385c-3.486,13.461,34.737,43.714,91.224,47.659
		c56.484,3.946,52.044-0.381,92.984,2.462c40.94,2.841,59.774,5.405,76.587-7.028c16.811-12.435,41.901-20.166,22.274-31.629
		c-19.628-11.463-56.897-24.408-73.989-27.439c-17.095-3.029-89.701-15.043-96.77-17.495
		C303.432,443.266,289.058,457.801,289.058,457.801z"/>
</g>
<g>
	<path fill="#BA915F" d="M505.051,456.267c-2.598-3.803,0-3.417-13.678-18.071c-13.675-14.656-81.574-42.5-118.697-45.429
		c-37.125-2.932-43.964-2.932-68.877-2.932c-24.911,0-17.584-10.745-59.104,4.886s-56.664,39.077-56.664,51.288
		c0,12.213,4.886,32.729,25.89,40.545s46.894,22.957,124.073,22.957c77.179,0,105.023,3.909,134.819-10.746
		C502.61,484.111,513.379,468.462,505.051,456.267z"/>
	<g>
		<path fill="#AA804A" d="M472.812,498.765c29.798-14.653,40.566-30.303,32.238-42.498c-1.336-1.954-1.31-2.817-2.819-5.175
			c6.391,12.347-11.082,26.003-46.821,37.023c-39.775,12.262-29.568,7.448-58.782-2.406c-29.217-9.855-44.703,12.67-136.222-3.873
			c-49.566-8.961-65.775-28.347-70.226-44.911c-1.463,3.409-2.15,6.503-2.15,9.084c0,12.213,4.886,32.729,25.89,40.545
			s46.894,22.957,124.073,22.957C415.172,509.511,443.017,513.42,472.812,498.765z"/>
		<path fill="#AA804A" d="M499.126,446.929c-0.411-0.504-0.867-1.048-1.365-1.632C498.124,445.81,498.554,446.346,499.126,446.929z"
			/>
	</g>
	<path opacity="0.2" fill="#210008" d="M218.995,430.142c2.73-0.016,27.454,0,32.411-7.625s9.722-14.299-5.911-12.773
		c-15.633,1.524-29.93,4.387-34.126,12.582C207.176,430.522,210.189,430.194,218.995,430.142z"/>
	<g>
		<path fill="#6E4216" d="M502.75,451.946c-0.151-0.264-0.321-0.544-0.519-0.854c0.173,0.337,0.321,0.675,0.462,1.015
			C502.714,452.054,502.729,451.999,502.75,451.946z"/>
		<path fill="#6E4216" d="M472.812,490.495c-29.796,14.653-57.641,10.745-134.819,10.745c-77.18,0-103.069-15.143-124.073-22.957
			c-18.192-6.771-24.284-23.062-25.59-35.239c-0.178,1.041-0.3,2.045-0.3,2.965c0,12.213,4.886,32.729,25.89,40.545
			s46.894,22.957,124.073,22.957c77.179,0,105.023,3.909,134.819-10.746c26.344-12.953,37.785-26.685,34.337-38.119
			C504.494,470.123,493.059,480.538,472.812,490.495z"/>
	</g>
	<path opacity="0.2" fill="#210008" d="M344.095,457.867c-3.893-3.051-21.543-12.485-29.358-7.77
		c-7.817,4.719-16.015,6.433-13.347,12.153s22.687,12.201,38.511,12.011C355.724,474.071,355.534,466.827,344.095,457.867z"/>
	<path fill="#53161C" d="M218.995,427.661c2.73-0.018,27.454,0,32.411-7.625c4.957-7.627,9.722-14.299-5.911-12.774
		c-15.633,1.526-29.93,4.386-34.126,12.582C207.176,428.042,210.189,427.714,218.995,427.661z"/>
	<path fill="#53161C" d="M344.824,455.877c-3.895-3.049-21.544-12.484-29.36-7.77c-7.817,4.721-16.014,6.433-13.346,12.154
		c2.669,5.721,22.687,12.201,38.51,12.011C356.452,472.082,356.263,464.839,344.824,455.877z"/>
	<path opacity="0.2" fill="#210008" d="M344.891,398.209c-4.584-2.414-24.021-8.769-30.885,0c-6.864,8.77-6.674,10.104-2.289,13.155
		c4.386,3.051,22.689,5.146,26.311,4.574c3.621-0.572,4.819-0.763,9.75-3.242C352.707,410.221,348.514,400.115,344.891,398.209z"/>
	<path opacity="0.2" fill="#210008" d="M445.139,420.991c0.086-0.597-5.718-10.675-10.675-14.298
		c-4.958-3.623-4.767-13.537-10.104-12.394c-5.339,1.145-11.326,1.052-20.399,2.288c-9.074,1.237-17.921,2.278-14.489,7.238
		c3.431,4.965,17.348,8.967,24.974,11.159C422.07,417.179,444.566,424.997,445.139,420.991z"/>
	<path fill="#53161C" d="M345.016,396.207c-4.583-2.416-24.021-8.771-30.883,0c-6.864,8.768-6.676,10.101-2.29,13.151
		c4.385,3.053,22.688,5.147,26.31,4.578c3.623-0.574,4.82-0.765,9.75-3.242C352.833,408.215,348.64,398.113,345.016,396.207z"/>
	<path fill="#53161C" d="M446.822,420.036c0.086-0.596-5.72-10.675-10.676-14.299c-4.958-3.623-4.767-13.536-10.104-12.393
		c-5.339,1.144-11.325,1.053-20.399,2.288c-9.075,1.235-17.921,2.275-14.49,7.239c3.433,4.962,17.35,8.966,24.976,11.157
		C423.753,416.224,446.249,424.041,446.822,420.036z"/>
	<path opacity="0.2" fill="#210008" d="M454.831,457.77c-3.641,0.169-20.402,5.53-23.643,9.724
		c-3.24,4.194-9.152,13.156-6.481,16.396c2.67,3.24,20.02,5.721,31.077,0c11.056-5.721,13.153-7.627,13.153-14.299
		S467.223,457.196,454.831,457.77z"/>
	<path opacity="0.2" fill="#210008" d="M265.516,490.373c-0.519-1.834-6.101-21.161-15.442-22.305
		c-9.341-1.144-12.568,2.395-23.157,3.008c-10.588,0.613-12.874,4.807-9.253,9.003c3.621,4.193,9.342,9.724,19.256,12.011
		C246.832,494.378,266.957,495.467,265.516,490.373z"/>
	<path fill="#53161C" d="M454.831,455.877c-3.641,0.169-20.402,5.529-23.643,9.724s-9.152,13.155-6.481,16.396
		c2.67,3.24,20.02,5.721,31.077,0c11.056-5.72,13.153-7.627,13.153-14.298C468.938,461.025,467.223,455.303,454.831,455.877z"/>
	<path fill="#53161C" d="M265.516,487.717c-0.519-1.836-6.101-21.163-15.442-22.307c-9.341-1.144-12.568,2.395-23.157,3.009
		c-10.588,0.613-12.874,4.807-9.253,9.001c3.621,4.195,9.342,9.724,19.256,12.011C246.832,491.718,266.957,492.81,265.516,487.717z"
		/>
	<circle fill="#6E4216" cx="280.293" cy="405.667" r="1.87"/>
	<circle fill="#6E4216" cx="291.826" cy="412.109" r="2.456"/>
	<path fill="#6E4216" d="M248.384,435.795c0,0.624-0.508,1.13-1.133,1.13c-0.624,0-1.132-0.506-1.132-1.13
		c0-0.628,0.508-1.133,1.132-1.133C247.876,434.662,248.384,435.167,248.384,435.795z"/>
	<path fill="#6E4216" d="M263.781,435.72c0,0.819-0.668,1.485-1.489,1.485c-0.822,0-1.487-0.666-1.487-1.485
		c0-0.824,0.665-1.49,1.487-1.49C263.113,434.229,263.781,434.896,263.781,435.72z"/>
	<circle fill="#6E4216" cx="267.619" cy="445.704" r="0.408"/>
	<circle fill="#6E4216" cx="209.41" cy="440.364" r="2.001"/>
	<ellipse fill="#6E4216" cx="219.689" cy="448.951" rx="0.534" ry="0.001"/>
	<circle fill="#6E4216" cx="277.623" cy="474.256" r="0.801"/>
	<circle fill="#6E4216" cx="300.584" cy="485.566" r="3.738"/>
	<path fill="#6E4216" d="M369.466,424.363c0,1.769-1.435,3.206-3.204,3.206s-3.203-1.438-3.203-3.206
		c0-1.768,1.434-3.203,3.203-3.203S369.466,422.596,369.466,424.363z"/>
	<circle fill="#6E4216" cx="378.543" cy="434.865" r="1.068"/>
	<circle fill="#6E4216" cx="365.46" cy="395.821" r="0.801"/>
	<circle fill="#6E4216" cx="401.771" cy="418.778" r="2.136"/>
	<circle fill="#6E4216" cx="433.782" cy="428.877" r="1.309"/>
	<circle fill="#6E4216" cx="454.705" cy="433.191" r="0.606"/>
	<path fill="#6E4216" d="M401.772,456.415c0,1.328-1.076,2.407-2.405,2.407c-1.325,0-2.402-1.079-2.402-2.407
		c0-1.324,1.077-2.4,2.402-2.4C400.696,454.015,401.772,455.091,401.772,456.415z"/>
	<circle fill="#6E4216" cx="341.833" cy="434.456" r="1.263"/>
	<circle fill="#6E4216" cx="364.053" cy="460.54" r="0.994"/>
	<circle fill="#6E4216" cx="365.548" cy="479.154" r="0.889"/>
	<circle fill="#6E4216" cx="339.186" cy="489.005" r="1.384"/>
	<path fill="#6E4216" d="M397.274,487.976c0,1.333-1.078,2.413-2.411,2.413c-1.33,0-2.41-1.08-2.41-2.413
		c0-1.329,1.08-2.409,2.41-2.409C396.196,485.566,397.274,486.646,397.274,487.976z"/>
	<circle fill="#6E4216" cx="480.796" cy="450.073" r="1.122"/>
	<circle fill="#6E4216" cx="484.939" cy="460.04" r="0.497"/>
	<path fill="#36030F" d="M344.824,455.877c-0.139-0.109-0.331-0.241-0.503-0.363c5.321,4.167,8.605,11.517-3.751,13.173
		c-12.413,1.66-32.953-5.189-33.235-9.864c-0.28-4.676,4.573-8.745,4.573-8.745l-0.003-0.002c-6.502,3.361-12.05,5.337-9.787,10.187
		c2.669,5.721,22.687,12.201,38.51,12.011C356.452,472.082,356.263,464.839,344.824,455.877z"/>
	<path opacity="0.3" fill="#B98182" d="M319.677,448.107c-3.626,0.179-9.817,3.821-9.185,6.416c0.63,2.594,5.398,8.062,12.198,8.834
		c6.801,0.771,23.137,0.999,19.492-3.812C338.537,454.733,329.071,447.652,319.677,448.107z"/>
	<path opacity="0.3" fill="#B98182" d="M314.675,451.063c0,0,2.868-3.538,9.815-1.823c6.949,1.716,11.873,5.844,9.816,6.03
		c-2.058,0.186-14.211-4.441-16.594-3.786S313.763,451.859,314.675,451.063z"/>
	<path fill="#36030F" d="M265.516,487.717c-0.407-1.439-3.936-13.595-9.938-19.347c1.545,1.784,3.118,4.75,4.943,9.293
		c2.745,6.823-2.531,11.395-16.061,10.265c-13.529-1.136-25.021-7.493-25.858-12.063c-0.556-3.029,0.845-5.182,1.938-6.383
		c-4.979,1.632-5.601,4.783-2.877,7.938c3.621,4.195,9.342,9.724,19.256,12.011C246.832,491.718,266.957,492.81,265.516,487.717z"/>
	<path opacity="0.3" fill="#B98182" d="M222.078,471.911c0.172,1.28,0.632,4.697,3.576,7.291c2.944,2.596,19.07,6.592,25.312,5.329
		c6.239-1.262,7.781-3.295,5.538-7.011c-2.242-3.716-0.562-8.905-8.693-8.625c-8.134,0.281-11.85,2.033-15.847,1.754
		C227.968,470.368,221.744,469.408,222.078,471.911z"/>
	<path opacity="0.3" fill="#B98182" d="M242.131,471.14c0,0,4.697-2.664,8.273-0.49c3.575,2.173,3.295,4.014,3.857,6.179
		c0.56,2.165,0.489,3.356-0.491,3.987c-0.982,0.631-3.296-1.542-4.067-4.697C248.933,472.962,238.891,473.247,242.131,471.14z"/>
	<path fill="#36030F" d="M252.973,407.376c1.909,1.446-4.873,12.69-13.534,15.495c-8.71,2.817-26.005,2.73-26.816-0.259
		c-0.79-2.91,0.53-5.092,0.595-5.381c-0.735,0.807-1.365,1.67-1.848,2.612c-4.193,8.198-1.18,7.87,7.626,7.817
		c2.73-0.018,27.454,0,32.411-7.625C255.282,414.072,258.996,408.708,252.973,407.376z"/>
	<path opacity="0.3" fill="#B98182" d="M215.646,421.789c0,0-0.866-6.309,6.673-8.958c7.539-2.65,24.871-5.85,24.932-4.157
		c0.062,1.69-9.625,3.519-13.28,7.585C230.314,420.325,215.242,424.974,215.646,421.789z"/>
	<path opacity="0.3" fill="#B98182" d="M216.387,419.983c0,0,1.224-5.774,7.626-7.033c6.404-1.258-0.036,1.297-2.851,3.203
		C218.35,418.06,215.979,421.946,216.387,419.983z"/>
	<path fill="#36030F" d="M348.45,400.242c2.839,8.178-7.027,10.798-13.388,11.354c-6.371,0.56-18.233-1.033-20.86-4.553
		c-2.391-3.203-0.228-9.856,0.35-11.222c0.023-0.058,0.031-0.062,0.049-0.101c-0.152,0.169-0.327,0.307-0.468,0.486
		c-6.864,8.768-6.676,10.101-2.29,13.151c4.385,3.053,22.688,5.147,26.31,4.578c3.623-0.574,4.82-0.765,9.75-3.242
		C351.197,409.038,350.411,403.984,348.45,400.242z"/>
	<path opacity="0.3" fill="#B98182" d="M315.703,402.17c0.008-0.28-0.935-7.664,8.227-8.413c9.161-0.747,10.378,1.038,13.369,2.064
		c2.99,1.02,8.787,5.21,8.226,7.978s-5.61,7.534-11.124,5.197c-5.515-2.339-7.946-2.244-12.434-2.524
		S315.656,403.963,315.703,402.17z"/>
	<path opacity="0.3" fill="#B98182" d="M320.565,397.123c0,0,5.422-3.555,10.562-2.104c5.142,1.45,8.976,3.879,7.105,4.536
		c-1.871,0.653-3.725-1.871-8.594-1.217C324.771,398.993,317.741,398.521,320.565,397.123z"/>
	<path fill="#36030F" d="M416.128,414.029c7.625,2.194,30.121,10.012,30.694,6.007c0.057-0.402-2.571-5.122-5.809-9.266
		c0.124,0.178,3.473,5.048,1.11,6.431c-2.405,1.407-9.688-2.126-15.13-7.056c-5.44-4.93-6.971-1.957-15.386-1.363
		c-8.414,0.597-15.752-2.142-14.644-8.073c0.384-2.049,1.648-3.393,3.13-4.288c-6.684,1.057-11.655,2.527-8.942,6.451
		C394.585,407.834,408.502,411.838,416.128,414.029z"/>
	<path opacity="0.3" fill="#B98182" d="M425.827,395.019c0,0-21.805-0.583-23.138,3.414c-1.332,3.996,4.699,6.66,9.956,5.609
		c5.259-1.052,6.521-4.373,10.798-1.17c4.277,3.203,9.296,7.619,9.03,3.834c-0.266-3.786-3.631-11.008-4.613-11.358
		C426.879,394.997,425.827,395.019,425.827,395.019z"/>
	<path opacity="0.3" fill="#B98182" d="M405.518,399.339c0,0,0.457-2.983,6.778-3.285c6.322-0.306,8.447,0.455,6.576,1.112
		S403.908,402.523,405.518,399.339z"/>
	<path fill="#36030F" d="M468.938,467.698c0-5.914-1.364-11.072-10.297-11.769c3.051,1.924,9.257,7.137,3.365,15.141
		c-7.572,10.282-31.094,11.8-33.654,7.384c-1.672-2.881-1.598-5.312-1.346-6.67c-2.286,3.93-3.967,8.188-2.299,10.212
		c2.67,3.24,20.02,5.721,31.077,0C466.84,476.276,468.938,474.369,468.938,467.698z"/>
	<path opacity="0.3" fill="#B98182" d="M432.146,472.318c0.17-0.3,0.947-7.239,9.47-10.756c8.523-3.516,11.77-7.039,15.085-2.74
		c3.315,4.297,5.817,10.586-0.812,12.413c-6.628,1.828-11.362,2.438-15.827,4.735C435.597,478.27,430.117,475.903,432.146,472.318z"
		/>
	<path opacity="0.3" fill="#B98182" d="M433.894,471.924c0,0,1.779-5.729,5.164-8.03c3.386-2.3,6.032-1.951,4.904,0
		c-1.128,1.953-6.771,9.245-8.723,10.328C433.285,475.308,433.452,473.136,433.894,471.924z"/>
	<path fill="#93632D" d="M365.548,443.044c2.225,2.504,0.406,5.498,3.918,8.15c3.73,2.82,4.925,3.382,8.009,4.082
		c3.085,0.702,2.92-12.335,4.462-9.979c1.543,2.355,0.701,5.313,3.646,5.795c2.945,0.487,3.461-1.263,4.815-2.984
		c0.921-1.168,7.945-5.554,12.356-8.247c2.081-1.271,3.582-2.164,3.582-2.164s-5.548,4.246-6.7,5.348s-2.084,2.092-2.671,3.069
		c-0.585,0.978-1.707,0.412-2.828,2.656c-1.123,2.248,1.401,7.261,1.682,8.961c0.281,1.7,4.347,4.935,4.488,6.052
		c0.14,1.117,13.462,2.656,12.619,3.076c-0.841,0.426-0.701,0.565-4.907,0.565c-4.207,0-9.568-0.981-10.744-2.664
		c-1.175-1.683,0.139-0.842-2.411-3.225c-2.55-2.385-4.232-4.899-6.897-4.693c-2.664,0.206-5.047-0.348-5.749,0
		c-0.701,0.346-1.122,2.028-0.841,4.693c0.28,2.664,1.962,9.145,1.962,10.742c0,1.597,0,2.951,0,4.237
		c0,1.285,2.104,9.541-0.561,0.366c-2.663-9.177-2.524-11.552-2.524-13.099s-0.723-2.849-0.642-3.742c0.081-0.89,0-2.31,0-2.31
		s1.624,1.324-3.563,1.092c-5.189-0.232-14.725-1.98-22.017-7.628c-7.291-5.646-8.554-8.15-8.554-8.15s9.396,7.566,11.499,8.048
		c2.103,0.487-3.927,0,3.225,1.015c7.152,1.015,8.554,1.015,8.554,1.015s-3.629-5.513-3.708-6.192
		C364.969,446.25,365.548,443.044,365.548,443.044z"/>
	<path fill="#93632D" d="M265.59,395.982c1.741-0.578,2.38-2.828,8.274-2.729c2.945,0.053,6.245-0.263,8.887-0.627
		c2.643-0.364,4.628-0.771,4.948-0.911c0.641-0.282,8.894-0.282,4.127,0c-4.767,0.28-14.583,3.043-11.532,4.006
		c3.05,0.964,13.987,5.855,13.987,5.855s0.434,1.206,0,1.296c-0.435,0.09,5.26,1.162-2.455-1.296s-7.842-2.588-8.355-2.715
		c-0.513-0.127-2.385-0.153-3.177-0.652c-0.794-0.499-4.636,0.333-4.253,1.455c0.384,1.119,1.948,6.749,2.383,7.712
		c0.436,0.965,0.437,1.351,1.205,3.271c0.768,1.922-1.769,2.435-2.807-0.384c-1.037-2.819-2.704-9.151-4.112-9.829
		c-1.408-0.676-8.44-1.316-11.905-1.316c-3.467,0-1.416,0.963-6.797,0.546c-5.382-0.417-6.406-1.21-2.434-1.455
		c3.971-0.245-2.577-0.499,4.603-0.499C263.358,397.71,265.59,395.982,265.59,395.982z"/>
	<path fill="#93632D" d="M215.615,438.364c0,0,2.024,1.906,8.381-1.159c6.355-3.063,8.342-3.448,8.845-2.976
		s0.503,2.905-3.049,3.467c-3.552,0.561-6.027,1.788-5.444,2.668c0.582,0.884,3.657,2.379,8.476,3.688
		c4.82,1.308,22.022,4.145,19.031,4.035c-2.993-0.11-13.269-1.102-17.946-2.382s-8.044-2.662-8.044-2.662s-0.746-0.488-2.617,0.822
		c-1.869,1.307,0.188,1.713-5.608,4.222c-5.798,2.509-6.175,2.989-8.135,5.927c-1.962,2.938-5.326,2.016-5.326,1.262
		c0-0.753,3.173-2.191,5.326-4.558c2.151-2.366,4.396-0.838,5.33-2.631c0.935-1.792,1.332-1.86,1.508-3.041
		c0.175-1.181-0.549-2.679,0-3.613C216.89,440.501,215.615,438.364,215.615,438.364z"/>
	<path fill="#93632D" d="M487.306,434.623c-6.86-5.26-18.584-11.563-32.432-17.681c-0.235,0.289-0.343,0.473-0.169,0.417
		c0.645-0.211,7.675,5.828,8.798,7.007c1.121,1.176,1.597,3.73-1.727,4.508c-3.322,0.781-5.38,1.312-5.38,1.312
		s3.926,0.341,7.292-1.312c3.365-1.648,8.602-1.198,8.602-1.198s3.738,0.796,4.299,1.198
		C477.128,429.265,486.562,434.231,487.306,434.623z"/>
	<path opacity="0.3" fill="#210008" d="M289.932,393.253c0,0-87.383,7.925-90.868,21.385c-3.485,13.462,34.739,43.713,91.225,47.658
		c56.484,3.947,52.044-0.381,92.985,2.464c40.939,2.839,59.773,5.405,76.584-7.029c16.812-12.434,41.903-20.166,22.276-31.63
		c-19.627-11.461-56.897-24.408-73.991-27.438c-17.093-3.03-89.699-15.045-96.77-17.496
		C304.305,378.718,289.932,393.253,289.932,393.253z"/>
</g>
<g>
	<path fill="#BA915F" d="M508.002,394.393c-2.599-3.804-0.003-3.418-13.678-18.074c-13.678-14.656-81.576-42.5-118.7-45.429
		c-37.124-2.93-43.963-2.93-68.876-2.93c-24.911,0-17.585-10.747-59.104,4.884c-41.521,15.631-56.663,39.078-56.663,51.29
		c0,12.213,4.884,32.729,25.889,40.543c21.004,7.817,46.893,22.957,124.072,22.957s105.023,3.909,134.821-10.744
		C505.559,422.236,516.328,406.585,508.002,394.393z"/>
	<g>
		<path fill="#AA804A" d="M475.763,436.89c29.796-14.653,40.565-30.305,32.239-42.497c-1.338-1.957-1.312-2.817-2.821-5.176
			c6.391,12.345-11.082,26.004-46.822,37.021c-39.774,12.264-29.566,7.447-58.782-2.406c-29.215-9.855-44.703,12.672-136.219-3.871
			c-49.566-8.96-65.776-28.347-70.229-44.911c-1.462,3.409-2.148,6.501-2.148,9.084c0,12.213,4.884,32.729,25.889,40.543
			c21.004,7.817,46.893,22.957,124.072,22.957S445.965,451.543,475.763,436.89z"/>
		<path fill="#AA804A" d="M502.075,385.052c-0.41-0.502-0.867-1.048-1.365-1.632C501.073,383.933,501.504,384.469,502.075,385.052z"
			/>
	</g>
	<path opacity="0.2" fill="#210008" d="M221.945,368.267c2.729-0.018,27.451,0,32.409-7.626s9.724-14.298-5.911-12.773
		c-15.632,1.525-29.93,4.386-34.125,12.581C210.124,368.647,213.14,368.319,221.945,368.267z"/>
	<g>
		<path fill="#6E4216" d="M505.699,390.072c-0.152-0.264-0.321-0.546-0.519-0.855c0.174,0.338,0.323,0.676,0.462,1.013
			C505.663,390.177,505.679,390.125,505.699,390.072z"/>
		<path fill="#6E4216" d="M475.763,428.618c-29.798,14.656-57.642,10.747-134.821,10.747s-103.068-15.145-124.072-22.958
			c-18.193-6.77-24.283-23.062-25.59-35.24c-0.179,1.043-0.299,2.047-0.299,2.967c0,12.213,4.884,32.729,25.889,40.543
			c21.004,7.817,46.893,22.957,124.072,22.957s105.023,3.909,134.821-10.744c26.343-12.955,37.784-26.687,34.336-38.119
			C507.443,408.249,496.008,418.659,475.763,428.618z"/>
	</g>
	<path opacity="0.2" fill="#210008" d="M347.044,395.992c-3.894-3.052-21.543-12.487-29.36-7.77
		c-7.815,4.718-16.014,6.432-13.346,12.151c2.669,5.721,22.688,12.203,38.512,12.011
		C358.673,412.196,358.484,404.953,347.044,395.992z"/>
	<path fill="#53161C" d="M221.945,365.787c2.729-0.019,27.451,0,32.409-7.628c4.958-7.627,9.724-14.299-5.911-12.774
		c-15.632,1.525-29.93,4.385-34.125,12.584C210.124,366.168,213.14,365.838,221.945,365.787z"/>
	<path fill="#53161C" d="M347.772,394.002c-3.894-3.052-21.543-12.486-29.36-7.77c-7.816,4.718-16.014,6.434-13.345,12.152
		c2.668,5.721,22.688,12.204,38.512,12.011C359.402,410.206,359.212,402.964,347.772,394.002z"/>
	<path opacity="0.2" fill="#210008" d="M347.84,336.334c-4.584-2.414-24.022-8.771-30.885,0c-6.863,8.769-6.674,10.102-2.289,13.152
		c4.386,3.053,22.688,5.146,26.31,4.578c3.622-0.575,4.821-0.766,9.751-3.243C355.656,348.343,351.463,338.241,347.84,336.334z"/>
	<path opacity="0.2" fill="#210008" d="M448.089,359.116c0.085-0.596-5.72-10.674-10.677-14.299
		c-4.958-3.624-4.765-13.535-10.104-12.392c-5.338,1.144-11.326,1.052-20.399,2.287c-9.074,1.236-17.922,2.276-14.489,7.239
		c3.431,4.962,17.348,8.965,24.975,11.156C425.021,355.304,447.517,363.122,448.089,359.116z"/>
	<path fill="#53161C" d="M347.967,334.33c-4.585-2.413-24.022-8.771-30.887,0c-6.863,8.771-6.673,10.102-2.288,13.151
		c4.386,3.053,22.689,5.149,26.311,4.577c3.621-0.571,4.819-0.764,9.75-3.24C355.782,346.338,351.589,336.237,347.967,334.33z"/>
	<path fill="#53161C" d="M449.77,358.161c0.087-0.598-5.718-10.677-10.674-14.298c-4.958-3.625-4.766-13.537-10.104-12.394
		s-11.326,1.05-20.4,2.288c-9.073,1.235-17.92,2.273-14.488,7.238c3.431,4.961,17.348,8.965,24.974,11.157
		C426.703,354.347,449.199,362.164,449.77,358.161z"/>
	<path opacity="0.2" fill="#210008" d="M457.779,395.896c-3.64,0.166-20.4,5.529-23.642,9.724
		c-3.24,4.193-9.151,13.154-6.481,16.394c2.669,3.243,20.019,5.721,31.076,0c11.058-5.719,13.153-7.625,13.153-14.299
		C471.886,401.042,470.172,395.321,457.779,395.896z"/>
	<path opacity="0.2" fill="#210008" d="M268.465,428.498c-0.519-1.837-6.102-21.161-15.441-22.306
		c-9.342-1.144-12.569,2.393-23.157,3.007c-10.589,0.613-12.876,4.807-9.253,9.003c3.622,4.196,9.341,9.724,19.254,12.011
		C249.78,432.501,269.906,433.59,268.465,428.498z"/>
	<path fill="#53161C" d="M457.779,394.002c-3.64,0.167-20.4,5.53-23.642,9.724c-3.24,4.193-9.151,13.156-6.481,16.394
		c2.669,3.243,20.019,5.721,31.076,0c11.058-5.719,13.153-7.624,13.153-14.298C471.886,399.149,470.172,393.429,457.779,394.002z"/>
	<path fill="#53161C" d="M268.465,425.84c-0.519-1.833-6.102-21.163-15.441-22.307c-9.342-1.144-12.569,2.397-23.157,3.011
		c-10.589,0.613-12.876,4.808-9.253,9.001c3.622,4.193,9.341,9.724,19.254,12.011S269.906,430.934,268.465,425.84z"/>
	<circle fill="#6E4216" cx="283.243" cy="343.792" r="1.869"/>
	<circle fill="#6E4216" cx="294.775" cy="350.233" r="2.455"/>
	<circle fill="#6E4216" cx="250.201" cy="373.918" r="1.132"/>
	<circle fill="#6E4216" cx="265.241" cy="373.843" r="1.488"/>
	<circle fill="#6E4216" cx="270.568" cy="383.827" r="0.407"/>
	<circle fill="#6E4216" cx="212.358" cy="378.489" r="2.002"/>
	<ellipse fill="#6E4216" cx="222.638" cy="387.074" rx="0.534" ry="0"/>
	<circle fill="#6E4216" cx="280.573" cy="412.381" r="0.801"/>
	<circle fill="#6E4216" cx="303.533" cy="423.69" r="3.737"/>
	<circle fill="#6E4216" cx="369.212" cy="362.486" r="3.204"/>
	<circle fill="#6E4216" cx="381.493" cy="372.991" r="1.068"/>
	<circle fill="#6E4216" cx="368.411" cy="333.944" r="0.8"/>
	<circle fill="#6E4216" cx="404.72" cy="356.903" r="2.136"/>
	<circle fill="#6E4216" cx="436.731" cy="367" r="1.308"/>
	<circle fill="#6E4216" cx="457.654" cy="371.316" r="0.605"/>
	<circle fill="#6E4216" cx="402.318" cy="394.541" r="2.403"/>
	<circle fill="#6E4216" cx="344.782" cy="372.579" r="1.264"/>
	<circle fill="#6E4216" cx="367.002" cy="398.663" r="0.995"/>
	<circle fill="#6E4216" cx="368.499" cy="417.28" r="0.888"/>
	<circle fill="#6E4216" cx="342.135" cy="427.128" r="1.384"/>
	<circle fill="#6E4216" cx="397.813" cy="426.101" r="2.411"/>
	<path fill="#6E4216" d="M484.866,388.196c0,0.622-0.501,1.121-1.121,1.121s-1.122-0.499-1.122-1.121
		c0-0.617,0.502-1.122,1.122-1.122S484.866,387.579,484.866,388.196z"/>
	<circle fill="#6E4216" cx="487.888" cy="398.165" r="0.498"/>
	<path fill="#36030F" d="M347.772,394.002c-0.138-0.108-0.331-0.24-0.503-0.365c5.322,4.167,8.607,11.518-3.751,13.173
		c-12.412,1.662-32.952-5.189-33.232-9.865c-0.281-4.675,4.572-8.744,4.572-8.744h-0.004c-6.501,3.361-12.049,5.337-9.787,10.185
		c2.668,5.721,22.688,12.204,38.512,12.011C359.402,410.206,359.212,402.964,347.772,394.002z"/>
	<path opacity="0.3" fill="#B98182" d="M322.625,386.232c-3.626,0.175-9.816,3.819-9.185,6.414c0.631,2.594,5.398,8.062,12.2,8.834
		c6.8,0.771,23.138,0.999,19.49-3.812C341.485,392.856,332.021,385.775,322.625,386.232z"/>
	<path opacity="0.3" fill="#B98182" d="M317.624,389.186c0,0,2.867-3.537,9.816-1.822c6.948,1.718,11.873,5.846,9.815,6.03
		c-2.058,0.188-14.209-4.439-16.594-3.786C318.278,390.263,316.712,389.982,317.624,389.186z"/>
	<path fill="#36030F" d="M268.465,425.84c-0.407-1.439-3.937-13.595-9.938-19.345c1.545,1.781,3.118,4.751,4.946,9.291
		c2.742,6.821-2.533,11.397-16.062,10.265c-13.53-1.133-25.021-7.494-25.858-12.062c-0.556-3.027,0.846-5.183,1.938-6.384
		c-4.981,1.632-5.602,4.785-2.877,7.94c3.622,4.193,9.341,9.724,19.254,12.011S269.906,430.934,268.465,425.84z"/>
	<path opacity="0.3" fill="#B98182" d="M225.028,410.034c0.17,1.281,0.63,4.697,3.575,7.291c2.945,2.596,19.071,6.592,25.311,5.329
		c6.24-1.262,7.783-3.295,5.539-7.011s-0.56-8.905-8.693-8.625s-11.851,2.033-15.846,1.754
		C230.917,408.491,224.692,407.534,225.028,410.034z"/>
	<path opacity="0.3" fill="#B98182" d="M245.08,409.263c0,0,4.697-2.664,8.273-0.49c3.576,2.173,3.296,4.016,3.855,6.181
		c0.561,2.163,0.491,3.354-0.49,3.985c-0.982,0.631-3.296-1.542-4.067-4.697C251.881,411.086,241.84,411.373,245.08,409.263z"/>
	<path fill="#36030F" d="M255.921,345.501c1.91,1.447-4.871,12.691-13.533,15.493c-8.709,2.82-26.006,2.732-26.816-0.256
		c-0.791-2.91,0.53-5.095,0.595-5.382c-0.734,0.808-1.364,1.669-1.848,2.612c-4.194,8.199-1.179,7.869,7.627,7.818
		c2.729-0.019,27.451,0,32.409-7.628C258.232,352.195,261.944,346.834,255.921,345.501z"/>
	<path opacity="0.3" fill="#B98182" d="M218.595,359.912c0,0-0.866-6.309,6.673-8.958c7.539-2.648,24.872-5.847,24.933-4.155
		c0.062,1.688-9.625,3.519-13.281,7.585C233.265,358.451,218.191,363.097,218.595,359.912z"/>
	<path opacity="0.3" fill="#B98182" d="M219.336,358.108c0,0,1.223-5.775,7.627-7.033c6.402-1.26-0.038,1.297-2.851,3.204
		C221.299,356.183,218.929,360.07,219.336,358.108z"/>
	<path fill="#36030F" d="M351.4,338.365c2.838,8.179-7.029,10.8-13.39,11.355c-6.368,0.558-18.233-1.033-20.86-4.555
		c-2.389-3.201-0.228-9.856,0.352-11.222c0.021-0.056,0.03-0.062,0.048-0.1c-0.15,0.167-0.328,0.306-0.47,0.485
		c-6.863,8.771-6.673,10.102-2.288,13.151c4.386,3.053,22.689,5.149,26.311,4.577c3.621-0.571,4.819-0.764,9.75-3.24
		C354.146,347.162,353.359,342.11,351.4,338.365z"/>
	<path opacity="0.3" fill="#B98182" d="M318.652,340.296c0.009-0.28-0.935-7.664,8.227-8.414c9.163-0.749,10.378,1.038,13.368,2.062
		c2.991,1.022,8.787,5.213,8.227,7.978c-0.56,2.768-5.61,7.534-11.124,5.197c-5.516-2.337-7.947-2.244-12.434-2.524
		C320.429,344.314,318.606,342.088,318.652,340.296z"/>
	<path opacity="0.3" fill="#B98182" d="M323.514,335.247c0,0,5.422-3.553,10.564-2.103c5.142,1.447,8.974,3.877,7.104,4.532
		c-1.869,0.656-3.725-1.868-8.594-1.216C327.721,337.116,320.692,336.646,323.514,335.247z"/>
	<path fill="#36030F" d="M419.076,352.153c7.627,2.193,30.123,10.011,30.693,6.008c0.06-0.402-2.569-5.124-5.808-9.268
		c0.125,0.18,3.473,5.048,1.111,6.431c-2.405,1.406-9.69-2.126-15.13-7.056c-5.44-4.93-6.971-1.957-15.386-1.36
		s-15.753-2.143-14.643-8.076c0.384-2.049,1.646-3.393,3.129-4.285c-6.683,1.056-11.655,2.524-8.941,6.449
		C397.533,345.957,411.45,349.961,419.076,352.153z"/>
	<path opacity="0.3" fill="#B98182" d="M428.775,333.145c0,0-21.804-0.586-23.137,3.411c-1.331,3.996,4.698,6.661,9.957,5.609
		c5.257-1.053,6.52-4.371,10.797-1.169s9.297,7.618,9.03,3.833c-0.267-3.786-3.632-11.008-4.614-11.358
		C429.828,333.12,428.775,333.145,428.775,333.145z"/>
	<path opacity="0.2" fill="#210008" d="M380.584,444.9c-0.063-0.602-8.171-8.941-13.867-11.231
		c-5.695-2.292-7.95-11.949-12.844-9.527c-4.892,2.424-10.719,3.807-19.209,7.239c-8.49,3.432-16.808,6.617-12.262,10.583
		c4.548,3.967,19.022,4.418,26.953,4.667C357.286,446.881,381.015,448.921,380.584,444.9z"/>
	<path opacity="0.3" fill="#B98182" d="M408.466,337.465c0,0,0.458-2.984,6.78-3.288c6.322-0.306,8.446,0.455,6.574,1.112
		C419.95,335.946,406.856,340.646,408.466,337.465z"/>
	<path fill="#53161C" d="M380.584,441.465c-0.063-0.602-8.171-8.939-13.867-11.231c-5.695-2.292-7.95-11.946-12.844-9.524
		c-4.892,2.423-10.719,3.806-19.209,7.237c-8.49,3.434-16.808,6.616-12.262,10.582c4.548,3.967,19.022,4.421,26.953,4.669
		S381.015,445.487,380.584,441.465z"/>
	<path fill="#36030F" d="M349.355,443.197c7.931,0.248,31.659,2.29,31.229-1.732c-0.043-0.403-3.753-4.334-7.911-7.55
		c0.164,0.14,4.608,4.037,2.66,5.958c-1.987,1.954-9.916,0.325-16.401-3.114c-6.486-3.44-7.238-0.18-15.248,2.467
		c-8.009,2.646-15.795,1.801-16.179-4.223c-0.133-2.081,0.761-3.691,1.977-4.925c-6.217,2.668-10.674,5.316-7.079,8.45
		C326.95,442.495,341.425,442.949,349.355,443.197z"/>
	<path opacity="0.3" fill="#B98182" d="M354.078,422.385c0,0-21.279,4.801-21.586,9.001c-0.308,4.203,6.192,5.3,11.03,2.988
		c4.837-2.313,5.244-5.841,10.178-3.791c4.934,2.052,10.885,5.097,9.696,1.491c-1.189-3.603-6.229-9.775-7.267-9.874
		C355.092,422.104,354.078,422.385,354.078,422.385z"/>
	<path opacity="0.3" fill="#B98182" d="M335.456,431.569c0,0-0.291-3.004,5.761-4.853c6.055-1.852,8.3-1.638,6.647-0.542
		C346.213,427.275,334.68,435.054,335.456,431.569z"/>
	<path fill="#36030F" d="M471.886,405.821c0-5.912-1.363-11.069-10.295-11.769c3.05,1.925,9.258,7.137,3.363,15.14
		c-7.571,10.283-31.092,11.801-33.654,7.386c-1.669-2.884-1.598-5.313-1.345-6.669c-2.286,3.931-3.967,8.186-2.299,10.21
		c2.669,3.243,20.019,5.721,31.076,0C469.79,414.4,471.886,412.495,471.886,405.821z"/>
	<path opacity="0.3" fill="#B98182" d="M435.096,410.441c0.17-0.3,0.946-7.236,9.47-10.756c8.522-3.516,11.77-7.038,15.084-2.741
		s5.817,10.587-0.812,12.414c-6.63,1.828-11.364,2.438-15.829,4.735C438.545,416.396,433.066,414.026,435.096,410.441z"/>
	<path opacity="0.3" fill="#B98182" d="M436.842,410.048c0,0,1.779-5.73,5.165-8.031c3.385-2.3,6.033-1.949,4.905,0
		c-1.13,1.955-6.771,9.245-8.725,10.329C436.234,413.433,436.401,411.259,436.842,410.048z"/>
	<path fill="#93632D" d="M368.498,381.167c2.226,2.504,0.405,5.497,3.918,8.15c3.729,2.822,4.924,3.382,8.009,4.082
		c3.086,0.701,2.918-12.333,4.46-9.979c1.543,2.355,0.702,5.313,3.646,5.797s3.46-1.265,4.815-2.984
		c0.921-1.17,7.945-5.556,12.355-8.247c2.084-1.272,3.583-2.166,3.583-2.166s-5.548,4.248-6.701,5.348
		c-1.152,1.102-2.084,2.093-2.669,3.069c-0.586,0.978-1.708,0.412-2.83,2.658c-1.121,2.246,1.402,7.261,1.684,8.961
		c0.28,1.698,4.347,4.934,4.486,6.053c0.141,1.114,13.462,2.652,12.621,3.075c-0.842,0.424-0.701,0.563-4.908,0.563
		s-9.568-0.981-10.744-2.664c-1.175-1.683,0.141-0.842-2.41-3.225c-2.551-2.385-4.234-4.9-6.897-4.694
		c-2.665,0.206-5.049-0.347-5.751,0c-0.7,0.346-1.121,2.029-0.841,4.694c0.28,2.664,1.964,9.147,1.964,10.742
		c0,1.597,0,2.953,0,4.237c0,1.286,2.104,9.544-0.562,0.368c-2.664-9.179-2.524-11.552-2.524-13.098c0-1.55-0.722-2.852-0.642-3.743
		c0.082-0.892,0-2.31,0-2.31s1.624,1.321-3.564,1.089c-5.188-0.231-14.724-1.979-22.015-7.627c-7.293-5.646-8.556-8.15-8.556-8.15
		s9.396,7.566,11.499,8.05s-3.926,0,3.226,1.013c7.151,1.015,8.554,1.015,8.554,1.015s-3.628-5.513-3.707-6.192
		C367.919,384.373,368.498,381.167,368.498,381.167z"/>
	<path fill="#93632D" d="M268.538,334.108c1.741-0.581,2.383-2.831,8.274-2.73c2.947,0.051,6.246-0.265,8.888-0.626
		c2.642-0.364,4.627-0.773,4.948-0.914c0.64-0.282,8.893-0.282,4.126,0c-4.766,0.282-14.583,3.043-11.531,4.007
		c3.049,0.964,13.986,5.854,13.986,5.854s0.434,1.206,0,1.297c-0.434,0.089,5.26,1.162-2.455-1.297
		c-7.714-2.458-7.841-2.585-8.354-2.712c-0.513-0.13-2.385-0.153-3.178-0.653c-0.794-0.501-4.636,0.333-4.253,1.453
		c0.384,1.119,1.949,6.748,2.384,7.714c0.435,0.964,0.436,1.35,1.203,3.27c0.769,1.924-1.768,2.437-2.805-0.384
		c-1.038-2.819-2.704-9.152-4.113-9.826c-1.409-0.679-8.439-1.319-11.906-1.319c-3.466,0-1.416,0.963-6.796,0.546
		c-5.382-0.417-6.405-1.21-2.435-1.453c3.971-0.245-2.577-0.501,4.604-0.501C266.308,335.833,268.538,334.108,268.538,334.108z"/>
	<path fill="#93632D" d="M218.565,376.487c0,0,2.023,1.906,8.379-1.156c6.356-3.063,8.343-3.449,8.846-2.976
		c0.503,0.473,0.502,2.902-3.05,3.464c-3.552,0.561-6.026,1.789-5.444,2.67c0.583,0.882,3.658,2.38,8.479,3.687
		c4.818,1.31,22.02,4.145,19.028,4.035c-2.991-0.11-13.269-1.102-17.946-2.382c-4.677-1.28-8.042-2.662-8.042-2.662
		s-0.747-0.486-2.618,0.822c-1.87,1.308,0.188,1.716-5.608,4.222c-5.796,2.509-6.175,2.989-8.136,5.929
		c-1.962,2.937-5.327,2.014-5.327,1.26c0-0.753,3.174-2.191,5.327-4.558s4.397-0.839,5.331-2.631s1.332-1.858,1.507-3.041
		c0.176-1.181-0.549-2.678,0-3.61C219.839,378.624,218.565,376.487,218.565,376.487z"/>
	<path fill="#93632D" d="M490.255,372.746c-6.86-5.26-18.585-11.562-32.432-17.678c-0.234,0.288-0.341,0.473-0.169,0.415
		c0.645-0.212,7.676,5.828,8.797,7.006c1.122,1.176,1.598,3.731-1.726,4.511s-5.38,1.31-5.38,1.31s3.926,0.343,7.292-1.31
		c3.365-1.651,8.601-1.201,8.601-1.201s3.738,0.796,4.301,1.201C480.077,367.391,489.51,372.355,490.255,372.746z"/>
	<path opacity="0.2" fill="#210008" d="M258.86,305.675c0,0-32.366,24.016-40.62,39.194c-8.252,15.177,6.419,30.193,53.266,33.62
		c46.848,3.432,28.435-6.104,72.908-3.439c44.476,2.664,120.133,9.163,135.125-8.05c14.991-17.213-0.881-24-22.556-29.213
		c-42.646-10.257-103.619-22.64-122.101-22.767S258.86,305.675,258.86,305.675z"/>
</g>
<path fill="#BA915F" d="M510.248,318.749c-2.599-3.803,0-3.418-13.678-18.073c-13.675-14.656-81.574-42.501-118.698-45.43
	c-37.124-2.93-43.963-2.93-68.875-2.93s-17.585-10.747-59.105,4.884s-56.664,39.078-56.664,51.29
	c0,12.213,4.886,32.729,25.89,40.544c21.004,7.816,46.894,22.957,124.073,22.957c77.179,0,105.022,3.908,134.819-10.745
	C507.808,346.594,518.576,330.942,510.248,318.749z"/>
<g>
	<path fill="#AA804A" d="M478.01,361.246c29.798-14.652,40.566-30.304,32.238-42.497c-1.336-1.957-1.31-2.817-2.82-5.176
		c6.392,12.346-11.081,26.004-46.82,37.022c-39.776,12.263-29.568,7.447-58.782-2.407c-29.217-9.855-44.703,12.672-136.222-3.87
		c-49.566-8.961-65.775-28.348-70.226-44.912c-1.463,3.409-2.15,6.501-2.15,9.084c0,12.213,4.886,32.729,25.89,40.544
		c21.004,7.816,46.894,22.957,124.073,22.957C420.369,371.991,448.213,375.899,478.01,361.246z"/>
	<path fill="#AA804A" d="M504.323,309.409c-0.411-0.502-0.867-1.048-1.365-1.633C503.32,308.289,503.751,308.825,504.323,309.409z"
		/>
</g>
<path opacity="0.2" fill="#210008" d="M224.192,292.623c2.73-0.018,27.453,0,32.411-7.625c4.956-7.627,9.722-14.298-5.911-12.773
	c-15.633,1.525-29.93,4.385-34.126,12.58C212.373,293.004,215.387,292.676,224.192,292.623z"/>
<g>
	<path fill="#6E4216" d="M507.946,314.429c-0.15-0.264-0.32-0.546-0.519-0.855c0.174,0.338,0.322,0.676,0.463,1.013
		C507.911,314.534,507.927,314.481,507.946,314.429z"/>
	<path fill="#6E4216" d="M478.01,352.975c-29.797,14.656-57.641,10.748-134.819,10.748c-77.18,0-103.069-15.146-124.073-22.959
		c-18.192-6.77-24.284-23.062-25.591-35.239c-0.177,1.043-0.299,2.046-0.299,2.966c0,12.213,4.886,32.729,25.89,40.544
		c21.004,7.816,46.894,22.957,124.073,22.957c77.179,0,105.022,3.908,134.819-10.745c26.344-12.955,37.785-26.687,34.337-38.119
		C509.691,332.605,498.256,343.017,478.01,352.975z"/>
</g>
<path opacity="0.2" fill="#210008" d="M349.292,320.349c-3.894-3.052-21.543-12.487-29.359-7.771
	c-7.817,4.719-16.014,6.434-13.346,12.152c2.669,5.721,22.687,12.204,38.51,12.011C360.921,336.554,360.731,329.31,349.292,320.349z
	"/>
<path fill="#53161C" d="M224.192,290.144c2.73-0.019,27.453,0,32.411-7.628c4.956-7.627,9.722-14.298-5.911-12.773
	c-15.633,1.525-29.93,4.384-34.126,12.583C212.373,290.524,215.387,290.195,224.192,290.144z"/>
<path fill="#53161C" d="M350.021,318.358c-3.895-3.052-21.544-12.486-29.36-7.769c-7.817,4.717-16.015,6.433-13.346,12.151
	c2.669,5.721,22.687,12.204,38.51,12.012C361.648,334.563,361.46,327.321,350.021,318.358z"/>
<path opacity="0.2" fill="#210008" d="M350.088,260.691c-4.584-2.414-24.021-8.771-30.886,0c-6.863,8.768-6.673,10.101-2.288,13.151
	c4.385,3.053,22.689,5.147,26.311,4.578c3.621-0.574,4.819-0.765,9.75-3.242C357.904,272.699,353.711,262.598,350.088,260.691z"/>
<path opacity="0.2" fill="#210008" d="M450.336,283.474c0.086-0.597-5.718-10.675-10.675-14.3
	c-4.958-3.623-4.767-13.535-10.104-12.392c-5.339,1.144-11.326,1.052-20.399,2.287c-9.075,1.236-17.921,2.276-14.49,7.239
	c3.432,4.962,17.349,8.966,24.974,11.157C427.268,279.66,449.764,287.479,450.336,283.474z"/>
<path fill="#53161C" d="M350.213,258.687c-4.583-2.413-24.021-8.771-30.884,0c-6.863,8.771-6.675,10.102-2.289,13.152
	c4.385,3.052,22.688,5.148,26.31,4.578c3.623-0.573,4.82-0.766,9.75-3.242C358.03,270.695,353.836,260.594,350.213,258.687z"/>
<path fill="#53161C" d="M452.019,282.518c0.087-0.598-5.719-10.677-10.675-14.298c-4.958-3.625-4.767-13.536-10.105-12.393
	c-5.338,1.144-11.324,1.049-20.398,2.287c-9.075,1.235-17.921,2.273-14.49,7.238c3.433,4.962,17.35,8.965,24.976,11.157
	C428.95,278.704,451.446,286.521,452.019,282.518z"/>
<path opacity="0.2" fill="#210008" d="M460.027,320.252c-3.64,0.167-20.4,5.53-23.642,9.724c-3.24,4.193-9.152,13.155-6.482,16.394
	c2.671,3.243,20.021,5.721,31.077,0c11.057-5.719,13.154-7.624,13.154-14.299C474.135,325.398,472.42,319.679,460.027,320.252z"/>
<path opacity="0.2" fill="#210008" d="M270.713,352.855c-0.52-1.838-6.101-21.161-15.442-22.307
	c-9.342-1.144-12.568,2.395-23.157,3.008c-10.588,0.612-12.874,4.807-9.253,9.002c3.621,4.196,9.342,9.724,19.256,12.011
	C252.029,356.858,272.154,357.946,270.713,352.855z"/>
<path fill="#53161C" d="M460.027,318.358c-3.64,0.167-20.4,5.53-23.642,9.724c-3.24,4.194-9.152,13.156-6.482,16.395
	c2.671,3.242,20.021,5.72,31.077,0s13.154-7.625,13.154-14.299C474.135,323.506,472.42,317.785,460.027,318.358z"/>
<path fill="#53161C" d="M270.713,350.196c-0.52-1.833-6.101-21.163-15.442-22.307s-12.568,2.397-23.157,3.011
	c-10.588,0.614-12.874,4.808-9.253,9.001c3.621,4.194,9.342,9.724,19.256,12.011C252.029,354.2,272.154,355.291,270.713,350.196z"/>
<path fill="#6E4216" d="M287.36,268.149c0,1.029-0.839,1.866-1.87,1.866c-1.032,0-1.869-0.837-1.869-1.866
	c0-1.034,0.837-1.871,1.869-1.871C286.521,266.278,287.36,267.115,287.36,268.149z"/>
<circle fill="#6E4216" cx="297.023" cy="274.591" r="2.456"/>
<circle fill="#6E4216" cx="252.449" cy="298.273" r="1.132"/>
<circle fill="#6E4216" cx="267.49" cy="298.199" r="1.488"/>
<circle fill="#6E4216" cx="272.816" cy="308.184" r="0.408"/>
<circle fill="#6E4216" cx="214.607" cy="302.847" r="2.001"/>
<ellipse fill="#6E4216" cx="224.887" cy="311.432" rx="0.534" ry="0.001"/>
<circle fill="#6E4216" cx="282.82" cy="336.738" r="0.801"/>
<circle fill="#6E4216" cx="305.782" cy="348.047" r="3.738"/>
<circle fill="#6E4216" cx="371.459" cy="286.843" r="3.204"/>
<circle fill="#6E4216" cx="383.74" cy="297.348" r="1.068"/>
<circle fill="#6E4216" cx="370.658" cy="258.301" r="0.801"/>
<circle fill="#6E4216" cx="406.969" cy="281.261" r="2.136"/>
<circle fill="#6E4216" cx="438.979" cy="291.356" r="1.309"/>
<circle fill="#6E4216" cx="459.902" cy="295.674" r="0.606"/>
<circle fill="#6E4216" cx="404.565" cy="318.897" r="2.403"/>
<circle fill="#6E4216" cx="347.03" cy="296.936" r="1.263"/>
<circle fill="#6E4216" cx="369.25" cy="323.02" r="0.994"/>
<circle fill="#6E4216" cx="370.745" cy="341.637" r="0.889"/>
<circle fill="#6E4216" cx="344.383" cy="351.485" r="1.384"/>
<circle fill="#6E4216" cx="400.061" cy="350.458" r="2.411"/>
<circle fill="#6E4216" cx="485.993" cy="312.554" r="1.122"/>
<circle fill="#6E4216" cx="490.136" cy="322.522" r="0.497"/>
<path fill="#36030F" d="M350.021,318.358c-0.14-0.108-0.331-0.24-0.503-0.365c5.321,4.168,8.604,11.518-3.751,13.173
	c-12.413,1.662-32.954-5.188-33.235-9.865c-0.28-4.675,4.573-8.744,4.573-8.744h-0.003c-6.502,3.361-12.05,5.338-9.787,10.185
	c2.669,5.721,22.687,12.204,38.51,12.012C361.648,334.563,361.46,327.321,350.021,318.358z"/>
<path opacity="0.3" fill="#B98182" d="M324.874,310.59c-3.626,0.175-9.817,3.818-9.185,6.413c0.63,2.594,5.397,8.063,12.198,8.834
	c6.801,0.771,23.137,0.999,19.492-3.812C343.734,317.213,334.269,310.132,324.874,310.59z"/>
<path opacity="0.3" fill="#B98182" d="M319.872,313.542c0,0,2.868-3.537,9.815-1.822c6.949,1.719,11.873,5.847,9.816,6.03
	c-2.058,0.188-14.211-4.438-16.594-3.786C320.527,314.619,318.959,314.339,319.872,313.542z"/>
<path fill="#36030F" d="M270.713,350.196c-0.407-1.439-3.936-13.595-9.938-19.344c1.545,1.781,3.118,4.75,4.943,9.29
	c2.745,6.822-2.531,11.397-16.061,10.265s-25.021-7.494-25.858-12.062c-0.556-3.027,0.845-5.183,1.938-6.384
	c-4.979,1.633-5.601,4.785-2.877,7.94c3.621,4.194,9.342,9.724,19.256,12.011C252.029,354.2,272.154,355.291,270.713,350.196z"/>
<path opacity="0.3" fill="#B98182" d="M227.275,334.391c0.172,1.281,0.631,4.698,3.576,7.292c2.944,2.595,19.07,6.591,25.312,5.328
	c6.238-1.262,7.781-3.295,5.538-7.011s-0.562-8.904-8.693-8.624c-8.134,0.28-11.85,2.033-15.847,1.753
	C233.165,332.849,226.941,331.891,227.275,334.391z"/>
<path opacity="0.3" fill="#B98182" d="M247.328,333.62c0,0,4.697-2.665,8.273-0.491c3.575,2.173,3.295,4.017,3.856,6.182
	c0.561,2.162,0.49,3.354-0.49,3.984c-0.982,0.632-3.296-1.542-4.067-4.697C254.13,335.442,244.087,335.729,247.328,333.62z"/>
<path fill="#36030F" d="M258.17,269.857c1.908,1.447-4.873,12.691-13.534,15.493c-8.711,2.82-26.005,2.733-26.816-0.256
	c-0.791-2.91,0.53-5.094,0.595-5.382c-0.735,0.808-1.365,1.67-1.848,2.612c-4.193,8.199-1.18,7.87,7.626,7.818
	c2.73-0.019,27.453,0,32.411-7.628C260.479,276.552,264.193,271.19,258.17,269.857z"/>
<path opacity="0.3" fill="#B98182" d="M220.844,284.269c0,0-0.867-6.309,6.673-8.957c7.539-2.649,24.87-5.848,24.932-4.156
	c0.062,1.689-9.626,3.519-13.28,7.586C235.512,282.808,220.439,287.454,220.844,284.269z"/>
<path opacity="0.3" fill="#B98182" d="M221.584,282.465c0,0,1.224-5.775,7.626-7.032c6.404-1.26-0.036,1.297-2.851,3.203
	C223.547,280.54,221.177,284.427,221.584,282.465z"/>
<path fill="#36030F" d="M353.647,262.722c2.839,8.18-7.027,10.801-13.389,11.356c-6.37,0.557-18.232-1.034-20.86-4.556
	c-2.39-3.201-0.227-9.856,0.35-11.222c0.024-0.055,0.031-0.061,0.05-0.1c-0.152,0.167-0.327,0.306-0.469,0.485
	c-6.863,8.771-6.675,10.102-2.289,13.152c4.385,3.052,22.688,5.148,26.31,4.578c3.623-0.573,4.82-0.766,9.75-3.242
	C356.395,271.519,355.608,266.467,353.647,262.722z"/>
<path opacity="0.3" fill="#B98182" d="M320.9,264.652c0.008-0.28-0.936-7.664,8.227-8.413c9.161-0.75,10.378,1.038,13.369,2.062
	c2.99,1.022,8.787,5.213,8.226,7.978c-0.562,2.768-5.61,7.535-11.125,5.197c-5.514-2.336-7.945-2.244-12.434-2.524
	C322.677,268.671,320.854,266.445,320.9,264.652z"/>
<path opacity="0.3" fill="#B98182" d="M325.763,259.604c0,0,5.422-3.553,10.562-2.103c5.142,1.447,8.976,3.878,7.104,4.532
	c-1.87,0.656-3.724-1.868-8.593-1.215C329.968,261.473,322.938,261.003,325.763,259.604z"/>
<path fill="#36030F" d="M421.325,276.51c7.625,2.194,30.121,10.012,30.693,6.008c0.058-0.402-2.57-5.124-5.808-9.268
	c0.123,0.18,3.473,5.048,1.11,6.431c-2.406,1.406-9.689-2.125-15.131-7.056c-5.439-4.93-6.97-1.956-15.385-1.36
	c-8.414,0.597-15.752-2.142-14.644-8.075c0.384-2.05,1.648-3.393,3.129-4.286c-6.683,1.056-11.654,2.524-8.941,6.449
	C399.782,270.314,413.699,274.317,421.325,276.51z"/>
<path opacity="0.3" fill="#B98182" d="M431.024,257.501c0,0-21.805-0.586-23.138,3.412c-1.332,3.995,4.699,6.66,9.956,5.608
	c5.259-1.053,6.521-4.372,10.798-1.169c4.277,3.202,9.296,7.619,9.03,3.834c-0.267-3.787-3.631-11.009-4.613-11.358
	C432.076,257.477,431.024,257.501,431.024,257.501z"/>
<path opacity="0.3" fill="#B98182" d="M410.715,261.821c0,0,0.456-2.984,6.778-3.288c6.322-0.306,8.446,0.455,6.576,1.112
	C422.197,260.303,409.105,265.003,410.715,261.821z"/>
<path fill="#36030F" d="M474.135,330.178c0-5.912-1.364-11.069-10.297-11.769c3.051,1.927,9.257,7.137,3.365,15.14
	c-7.573,10.283-31.094,11.802-33.654,7.387c-1.672-2.884-1.598-5.313-1.346-6.669c-2.286,3.93-3.967,8.185-2.3,10.21
	c2.671,3.242,20.021,5.72,31.077,0S474.135,336.852,474.135,330.178z"/>
<path opacity="0.3" fill="#B98182" d="M437.343,334.798c0.17-0.299,0.947-7.236,9.47-10.756c8.523-3.516,11.77-7.037,15.085-2.741
	c3.315,4.297,5.817,10.587-0.812,12.415c-6.628,1.827-11.362,2.437-15.827,4.734C440.794,340.752,435.313,338.383,437.343,334.798z"
	/>
<path opacity="0.3" fill="#B98182" d="M439.091,334.404c0,0,1.779-5.73,5.163-8.03c3.387-2.301,6.033-1.95,4.905,0
	c-1.128,1.954-6.771,9.244-8.723,10.328C438.482,337.789,438.648,335.616,439.091,334.404z"/>
<path fill="#93632D" d="M370.745,305.524c2.225,2.504,0.406,5.497,3.918,8.149c3.73,2.823,4.924,3.382,8.009,4.083
	c3.085,0.7,2.92-12.333,4.462-9.98c1.543,2.355,0.7,5.313,3.646,5.797c2.945,0.484,3.461-1.265,4.814-2.983
	c0.921-1.17,7.946-5.557,12.357-8.247c2.081-1.273,3.582-2.167,3.582-2.167s-5.549,4.248-6.7,5.349
	c-1.152,1.102-2.084,2.092-2.671,3.068c-0.585,0.978-1.707,0.412-2.828,2.659c-1.123,2.245,1.401,7.26,1.682,8.961
	c0.281,1.697,4.347,4.934,4.488,6.052c0.14,1.115,13.462,2.652,12.62,3.076c-0.842,0.423-0.702,0.563-4.909,0.563
	c-4.205,0-9.567-0.982-10.743-2.665c-1.175-1.683,0.139-0.842-2.411-3.225c-2.551-2.385-4.232-4.9-6.897-4.694
	c-2.664,0.206-5.047-0.346-5.749,0c-0.701,0.346-1.122,2.03-0.841,4.694c0.28,2.664,1.962,9.147,1.962,10.742
	c0,1.597,0,2.953,0,4.237c0,1.286,2.104,9.544-0.561,0.369c-2.663-9.18-2.524-11.553-2.524-13.099c0-1.55-0.724-2.852-0.642-3.742
	c0.081-0.893,0-2.31,0-2.31s1.624,1.32-3.564,1.088c-5.188-0.23-14.724-1.978-22.016-7.627c-7.291-5.646-8.554-8.149-8.554-8.149
	s9.396,7.565,11.499,8.049c2.103,0.484-3.927,0,3.225,1.013c7.152,1.015,8.554,1.015,8.554,1.015s-3.629-5.513-3.708-6.191
	C370.165,308.729,370.745,305.524,370.745,305.524z"/>
<path fill="#93632D" d="M270.787,258.465c1.74-0.581,2.38-2.831,8.274-2.73c2.945,0.051,6.245-0.265,8.887-0.626
	c2.643-0.364,4.628-0.773,4.947-0.914c0.642-0.282,8.895-0.282,4.128,0c-4.767,0.283-14.583,3.043-11.533,4.007
	c3.051,0.964,13.988,5.854,13.988,5.854s0.434,1.206,0,1.297c-0.435,0.089,5.26,1.162-2.455-1.297
	c-7.715-2.458-7.842-2.585-8.355-2.712c-0.513-0.129-2.385-0.153-3.178-0.652c-0.794-0.502-4.635,0.333-4.252,1.452
	c0.383,1.12,1.948,6.748,2.383,7.714c0.435,0.965,0.437,1.35,1.205,3.27c0.768,1.925-1.769,2.437-2.807-0.383
	c-1.037-2.82-2.704-9.152-4.112-9.827c-1.408-0.679-8.44-1.319-11.905-1.319c-3.467,0-1.416,0.963-6.798,0.546
	c-5.381-0.417-6.405-1.209-2.433-1.452c3.971-0.246-2.577-0.502,4.603-0.502C268.556,260.189,270.787,258.465,270.787,258.465z"/>
<path fill="#93632D" d="M220.812,300.845c0,0,2.024,1.906,8.381-1.157c6.355-3.063,8.341-3.449,8.844-2.976
	c0.504,0.473,0.504,2.902-3.049,3.464c-3.552,0.561-6.026,1.789-5.443,2.671c0.582,0.881,3.657,2.379,8.476,3.686
	c4.82,1.311,22.022,4.145,19.031,4.036c-2.993-0.11-13.269-1.103-17.946-2.382c-4.679-1.28-8.045-2.662-8.045-2.662
	s-0.746-0.486-2.616,0.821c-1.869,1.308,0.188,1.716-5.609,4.223c-5.797,2.508-6.174,2.988-8.134,5.929
	c-1.962,2.936-5.327,2.013-5.327,1.26c0-0.754,3.174-2.191,5.327-4.558c2.151-2.366,4.396-0.84,5.33-2.631
	c0.935-1.793,1.332-1.859,1.507-3.042c0.175-1.181-0.548-2.678,0-3.61C222.087,302.98,220.812,300.845,220.812,300.845z"/>
<path fill="#93632D" d="M492.503,297.104c-6.86-5.261-18.584-11.562-32.432-17.679c-0.235,0.288-0.343,0.473-0.169,0.415
	c0.644-0.212,7.675,5.828,8.798,7.006c1.121,1.176,1.596,3.731-1.727,4.511s-5.38,1.311-5.38,1.311s3.926,0.342,7.292-1.311
	c3.365-1.651,8.602-1.201,8.602-1.201s3.738,0.797,4.299,1.201C482.325,291.747,491.759,296.712,492.503,297.104z"/>
<path opacity="0.3" fill="#36030F" d="M254.48,255.51c-1.463,0.527-2.985,1.087-4.589,1.69
	c-41.521,15.631-56.664,39.078-56.664,51.29c0,12.213,4.886,32.729,25.89,40.544c3.529,1.313,7.197,2.834,11.223,4.454
	C260.943,323.356,267.72,265.904,254.48,255.51z"/>
<g>
	<path fill="#BA915F" d="M218.635,256.557c0,0-56.975,8.544-69.103,37.765c-12.13,29.221-12.13,42.93-27.565,57.301
		c-15.438,14.37-28.945,34.29-44.52,51.345c-15.573,17.054-26.833,14.935-49.871,51.277c-23.038,36.344-23.419,64.072-5.036,80.806
		c18.383,16.733,38.241-1.465,69.384-38.4c31.144-36.935,46.581-65.03,61.466-86.542c14.886-21.512,24.81-38.731,38.592-56.86
		c13.782-18.128,36.744-44.145,36.641-61.403S243.082,263.998,218.635,256.557z"/>
	<path fill="#AA804A" d="M228.623,291.844c-0.104-17.259,14.459-27.846-9.988-35.287c0,0-33.114,4.968-54.226,20.277l0,0
		c17.562,29.411,46.062,14.067-3.438,84.239S78.078,461.409,49.274,483.327c-20.595,15.672-30.556,5.322-35.108-2.584
		c-8.55,23.486-5.24,41.914,8.375,54.307c18.383,16.733,38.241-1.465,69.384-38.4c31.144-36.935,46.581-65.03,61.466-86.542
		c14.886-21.512,24.81-38.731,38.592-56.86C205.765,335.119,228.727,309.103,228.623,291.844z"/>
	<path opacity="0.3" fill="#6E4216" d="M191.982,353.247c13.782-18.128,36.744-44.145,36.641-61.403s14.459-27.846-9.988-35.287
		c0,0-1.115,0.168-3.051,0.532c-0.425,18.92-6.158,53.877-34.613,102.594C139.749,430.257,47.527,523.63,13.631,523.372
		c2.157,4.342,5.136,8.242,8.91,11.678c18.383,16.733,38.241-1.465,69.384-38.4c31.144-36.935,46.581-65.03,61.466-86.542
		C168.276,388.596,178.2,371.376,191.982,353.247z"/>
	<g>
		<path opacity="0.3" fill="#36030F" d="M127.328,384.753c-4.468,2.126-20.781,13.719-20.043,22.818
			c0.738,9.101-1.381,17.202,4.928,17.363c6.311,0.161,21.038-14.866,27.92-29.116C147.018,381.569,140.45,378.51,127.328,384.753z"
			/>
		<path fill="#53161C" d="M125.395,382.308c-4.469,2.126-20.781,13.719-20.043,22.818c0.736,9.101-1.382,17.202,4.928,17.363
			c6.311,0.161,21.037-14.866,27.919-29.116C145.083,379.124,138.516,376.064,125.395,382.308z"/>
		<path fill="#36030F" d="M125.395,382.308c-0.16,0.077-0.363,0.189-0.552,0.288c6.104-2.905,14.145-2.567,10.119,9.229
			c-4.046,11.852-19.335,27.186-23.647,25.353c-4.309-1.833-5.787-7.992-5.787-7.992l-0.002,0.003
			c0.11,7.318-0.594,13.166,4.754,13.301c6.311,0.161,21.037-14.866,27.919-29.116C145.083,379.124,138.516,376.064,125.395,382.308
			z"/>
		<path opacity="0.3" fill="#B98182" d="M107.229,401.354c-1.46,3.324-0.959,10.49,1.646,11.081
			c2.604,0.593,9.625-1.237,13.346-6.981c3.723-5.743,11.209-20.265,5.277-19.147C121.566,387.425,111.008,392.741,107.229,401.354z
			"/>
		<path opacity="0.3" fill="#B98182" d="M107.643,407.148c0,0-1.889-4.144,2.744-9.599c4.637-5.454,10.526-8.021,9.773-6.099
			c-0.748,1.927-10.309,10.742-10.786,13.166C108.898,407.042,107.948,408.321,107.643,407.148z"/>
	</g>
	<g>
		<path opacity="0.3" fill="#36030F" d="M171.424,304.873c0.361-0.866,4.816-7.749-3.425-12.313
			c-8.242-4.564-24.538,7.666-30.747,4.971c-6.211-2.697-18.479-9.934-16.884-4.097c1.593,5.839,9.336,16.783,8.433,24.01
			c-0.904,7.227-1.09,20.211,6.432,27.038c7.525,6.827,15.755,3.019,20.477-13.318C160.433,314.824,168.015,313.138,171.424,304.873
			z"/>
		<path fill="#53161C" d="M169.913,301.896c0.361-0.866,4.816-7.749-3.425-12.313c-8.242-4.564-24.538,7.666-30.747,4.971
			c-6.212-2.697-18.478-9.934-16.884-4.097c1.593,5.839,9.336,16.783,8.433,24.01s-1.089,20.211,6.433,27.038
			c7.524,6.827,15.754,3.019,20.476-13.318C158.922,311.847,166.504,310.16,169.913,301.896z"/>
		<path fill="#36030F" d="M163.486,296.362c-3.413,8.263-10.993,9.95-15.717,26.287c-3.928,13.591-10.285,18.503-16.641,15.845
			c0.74,1.092,1.598,2.105,2.594,3.01c7.524,6.827,15.754,3.019,20.476-13.318c4.724-16.339,12.306-18.025,15.715-26.29
			c0.361-0.866,4.816-7.749-3.425-12.313c-0.586-0.324-1.214-0.556-1.874-0.722C165.867,292.396,163.73,295.771,163.486,296.362z"/>
		<path opacity="0.2" fill="#B98182" d="M120.98,292.533c0,0,0.01-1.86,1.173-1.29c1.16,0.569,11.819,6.951,15.429,6.409
			c3.608-0.544,23.068-7.297,22.704-2.849c-0.367,4.444-7.43,6.975-10.744,14.812c-3.315,7.836-11.825,27.424-15.426,26.185
			c-3.599-1.24-5.353-10.809-4.377-17.277c0.978-6.471-0.952-13.724-3.483-16.962C123.727,298.322,120.98,292.533,120.98,292.533z"
			/>
		<path opacity="0.5" fill="#B98182" d="M126.642,300.331c0,0,6.359,6.174,5.492,11.129c-0.864,4.956-0.215,7.732,0.728,7.995
			c0.939,0.262,3.967-6.491,1.527-11.871C131.949,302.203,127.027,300.254,126.642,300.331z"/>
	</g>
	<g>
		<path opacity="0.3" fill="#36030F" d="M51.377,457.691c0.24-0.577,3.211-5.167-2.284-8.211
			c-5.496-3.043-16.362,5.112-20.502,3.314c-4.142-1.798-12.321-6.623-11.258-2.731c1.062,3.894,6.225,11.191,5.623,16.01
			s-0.726,13.477,4.289,18.029c5.018,4.552,10.505,2.013,13.653-8.881C44.047,464.327,49.104,463.202,51.377,457.691z"/>
		<path fill="#53161C" d="M50.734,455.456c0.24-0.577,3.211-5.167-2.284-8.211c-5.496-3.043-16.362,5.112-20.502,3.314
			c-4.142-1.798-12.321-6.623-11.258-2.731c1.062,3.894,6.225,11.191,5.623,16.01s-0.726,13.477,4.289,18.029
			c5.018,4.552,10.505,2.013,13.653-8.881C43.404,462.092,48.461,460.967,50.734,455.456z"/>
		<path fill="#36030F" d="M46.448,451.767c-2.276,5.51-7.33,6.635-10.479,17.528c-2.619,9.062-6.858,12.338-11.097,10.565
			c0.494,0.728,1.066,1.403,1.729,2.007c5.018,4.552,10.505,2.013,13.653-8.881c3.149-10.895,8.206-12.02,10.479-17.53
			c0.24-0.577,3.211-5.167-2.284-8.211c-0.392-0.216-0.81-0.37-1.249-0.48C48.035,449.121,46.611,451.372,46.448,451.767z"/>
		<path opacity="0.2" fill="#B98182" d="M18.106,449.213c0,0,0.006-1.24,0.782-0.859c0.773,0.379,7.88,4.635,10.288,4.273
			c2.406-0.363,15.381-4.866,15.139-1.899c-0.244,2.963-4.954,4.65-7.164,9.876c-2.211,5.226-7.885,18.286-10.286,17.46
			c-2.399-0.827-3.569-7.207-2.918-11.521c0.652-4.314-0.635-9.151-2.323-11.311C19.937,453.073,18.106,449.213,18.106,449.213z"/>
		<path opacity="0.5" fill="#B98182" d="M21.88,454.413c0,0,4.24,4.116,3.662,7.421c-0.577,3.305-0.143,5.155,0.485,5.331
			c0.627,0.174,2.646-4.328,1.019-7.916C25.419,455.661,22.138,454.361,21.88,454.413z"/>
	</g>
	<circle fill="#93632D" cx="69.646" cy="422.453" r="4.676"/>
	<rect x="74.322" y="431.849" fill="#93632D" width="0" height="0"/>
	<ellipse fill="#93632D" cx="117.343" cy="371.676" rx="1.373" ry="0"/>
	<circle fill="#93632D" cx="151.708" cy="348.048" r="3.738"/>
	<circle fill="#93632D" cx="188.452" cy="283.617" r="3.775"/>
	<circle fill="#93632D" cx="186.263" cy="310.057" r="2.529"/>
	<circle fill="#93632D" cx="176.221" cy="326.027" r="1.25"/>
	<circle fill="#93632D" cx="61.471" cy="480.358" r="0.5"/>
	<circle fill="#93632D" cx="43.426" cy="494.679" r="2.455"/>
	<circle fill="#93632D" cx="19.238" cy="515.276" r="2.642"/>
	<circle fill="#93632D" cx="29.439" cy="528.617" r="1.773"/>
	<circle fill="#93632D" cx="41.913" cy="512.302" r="0.942"/>
	<circle fill="#93632D" cx="90.114" cy="452.43" r="2.357"/>
	<circle fill="#93632D" cx="157.829" cy="378.949" r="2.462"/>
	<ellipse fill="#93632D" cx="116.657" cy="371.676" rx="0.687" ry="0"/>
	<circle fill="#93632D" cx="91.486" cy="401.938" r="3.729"/>
	<path fill="#93632D" d="M64.971,443.935c0.25-0.439,7.75-1.982,12.5-12.086s9-20.205,9.25-15.279s-2,6.816-4.25,11.371
		s-3.25,7.918-3,8.736s-4.75-0.512,6,0.528c3.416,0.331,6.793,0.555,9.777,0.71c1.944,0.103,3.722,0.176,5.234,0.231
		c3.469,0.126,5.544,0.155,5.043,0.218c-1.055,0.131-15.232,1.623-17.769,2.002s-7.286,0-7.286,0s-0.5-1.773-2.25,2.678
		s-0.547,6.764-3.898,12.232s-4.676,14.146-4.676,14.146s-2.324-3.08,0-9.879s2.324-5.811,2.824-7.805s3.953-3.34,1.852-4.417
		s1.148-4.698-6.102-3.388S64.971,443.935,64.971,443.935z"/>
	<g>
		<path fill="#93632D" d="M100.796,375.021c1.872-2.263,4.932-2.287,6.466-4.829c1.541-2.554,2.459-1.274,2.459-1.274
			s1.5,2.578,2.197,3.27s-0.447,3.559,0.053,7.058c0.145,1.007,0.183,1.885,0.173,2.594c0.339-2.862,0.961-9.054,1.601-14.844
			c0.772-7.001,1.727-4.249,2.227-5.636s2.75-2.113,5.01-2.978c2.261-0.864,3.24-2.386,7.281-6.896l-5.113,2.673
			c0,0,4.105-8.136,5.113-9.397h-0.001c-1.783,2.313-3.843,4.579-6.294,6.861C114.615,358.465,107.703,366.57,100.796,375.021z"/>
		<path fill="#93632D" d="M112.144,381.838c-0.07,0.599-0.13,1.062-0.173,1.334C111.793,384.292,112.12,383.594,112.144,381.838z"/>
	</g>
</g>
</svg>
