<?xml version="1.0" encoding="utf-8"?>
<!-- Generator: Adobe Illustrator 16.0.0, SVG Export Plug-In . SVG Version: 6.00 Build 0)  -->
<!DOCTYPE svg PUBLIC "-//W3C//DTD SVG 1.1//EN" "http://www.w3.org/Graphics/SVG/1.1/DTD/svg11.dtd">
<svg version="1.1" id="Layer_1" xmlns="http://www.w3.org/2000/svg" xmlns:xlink="http://www.w3.org/1999/xlink" x="0px" y="0px"
	 width="800px" height="250px" viewBox="0 0 800 250" enable-background="new 0 0 800 250" xml:space="preserve">
<g>
	<rect x="-0.086" y="202.672" fill="#6B8F3C" width="800" height="47.328"/>
	<g>
		<path fill="#597233" d="M220.794,203.676H-0.086v-30.039c16.95-11.041,35.65-20.91,69.05-20.91
			C144.884,152.727,144.884,203.676,220.794,203.676z"/>
		<path fill="#3E4C21" d="M68.966,203.672h151.826c-75.913,0-75.913-50.943-151.825-50.943h-0.001V203.672z"/>
	</g>
	<path fill="#4B5B2A" d="M414.936,203.672c-97.072,0-97.072-65.143-194.143-65.143c-97.071,0-97.071,65.143-194.143,65.143H414.936z
		"/>
	<path fill="#405526" d="M220.758,203.57l194.143,0.204c-97.072-0.103-97.003-65.245-194.074-65.348h0L220.758,203.57z"/>
	<g>
		<path fill="#566E31" d="M799.914,150.687v51.989H616.285c80.09,0,80.09-53.75,160.189-53.75
			C785.164,148.926,792.914,149.557,799.914,150.687z"/>
		<path fill="#425224" d="M799.914,150.687v51.989h-23.439v-53.75C785.164,148.926,792.914,149.557,799.914,150.687z"/>
	</g>
	<g>
		<path fill="#6E4E43" d="M164.048,186.338v31.99c0,1.107,1.362,2.004,3.042,2.004c1.681,0,3.042-0.896,3.042-2.004v-31.99H164.048z
			"/>
		<path fill="#4F352F" d="M170.132,186.338v31.99c0,1.107-1.362,2.004-3.042,2.004v-33.994H170.132z"/>
		<ellipse fill="#566E31" cx="167.09" cy="167.043" rx="20.171" ry="37.963"/>
		<path fill="#425224" d="M167.09,129.08v75.926c11.141,0,20.171-16.996,20.171-37.963C187.261,146.077,178.23,129.08,167.09,129.08
			z"/>
		<circle fill="#455526" cx="157.737" cy="190.075" r="1.942"/>
		<circle fill="#455526" cx="162.965" cy="175.975" r="1.942"/>
		<circle fill="#455526" cx="150.741" cy="165.623" r="1.942"/>
		<circle fill="#455526" cx="161.023" cy="152.176" r="1.942"/>
		<circle fill="#566E31" cx="171.213" cy="137.475" r="1.942"/>
		<circle fill="#566E31" cx="179.118" cy="147.08" r="1.942"/>
		<circle fill="#566E31" cx="171.213" cy="158.273" r="1.942"/>
		<circle fill="#566E31" cx="179.118" cy="164.621" r="1.942"/>
		<circle fill="#566E31" cx="170.553" cy="179.859" r="1.942"/>
		<circle fill="#566E31" cx="176.818" cy="193.139" r="1.942"/>
		<circle fill="#455526" cx="157.737" cy="140.648" r="1.942"/>
	</g>
	<g>
		<path fill="#6E4E43" d="M89.797,165.031v43.702c0,1.513,1.861,2.738,4.156,2.738c2.295,0,4.156-1.226,4.156-2.738v-43.702H89.797z
			"/>
		<path fill="#4F352F" d="M98.109,165.031v43.702c0,1.513-1.861,2.738-4.156,2.738v-46.44H98.109z"/>
		<ellipse fill="#566E31" cx="93.953" cy="138.674" rx="27.556" ry="51.859"/>
		<path fill="#3B491F" d="M93.953,86.814v103.719c15.219,0,27.556-23.218,27.556-51.859S109.172,86.814,93.953,86.814z"/>
		<circle fill="#495A28" cx="81.176" cy="170.139" r="2.653"/>
		<circle fill="#495A28" cx="88.317" cy="150.875" r="2.653"/>
		<circle fill="#495A28" cx="71.62" cy="136.734" r="2.653"/>
		<circle fill="#495A28" cx="85.665" cy="118.363" r="2.653"/>
		<circle fill="#566E31" cx="99.585" cy="98.281" r="2.653"/>
		<circle fill="#566E31" cx="110.384" cy="111.403" r="2.653"/>
		<circle fill="#566E31" cx="99.585" cy="126.693" r="2.653"/>
		<circle fill="#566E31" cx="110.384" cy="135.365" r="2.653"/>
		<circle fill="#566E31" cx="98.684" cy="156.182" r="2.653"/>
		<circle fill="#566E31" cx="107.242" cy="174.324" r="2.653"/>
		<circle fill="#495A28" cx="81.176" cy="102.617" r="2.653"/>
	</g>
	<g>
		<path fill="#6E4E43" d="M696.365,177.555v37.48c0,1.297,1.598,2.349,3.564,2.349c1.969,0,3.564-1.052,3.564-2.349v-37.48H696.365z
			"/>
		<path fill="#4F352F" d="M703.494,177.555v37.48c0,1.297-1.596,2.349-3.564,2.349v-39.829H703.494z"/>
		<ellipse fill="#597333" cx="699.931" cy="154.949" rx="23.634" ry="44.477"/>
		<path fill="#3E5023" d="M699.93,110.471v88.955c13.053,0,23.635-19.912,23.635-44.477S712.982,110.471,699.93,110.471z"/>
		<circle fill="#455727" cx="688.973" cy="181.934" r="2.275"/>
		<circle fill="#455727" cx="695.098" cy="165.413" r="2.275"/>
		<circle fill="#455727" cx="680.775" cy="153.285" r="2.275"/>
		<circle fill="#455727" cx="692.822" cy="137.529" r="2.275"/>
		<circle fill="#6B8F3C" cx="704.762" cy="120.306" r="2.275"/>
		<circle fill="#6B8F3C" cx="714.022" cy="131.561" r="2.274"/>
		<circle fill="#6B8F3C" cx="704.762" cy="144.674" r="2.275"/>
		<circle fill="#6B8F3C" cx="714.022" cy="152.111" r="2.274"/>
		<circle fill="#6B8F3C" cx="703.988" cy="169.964" r="2.275"/>
		<circle fill="#6B8F3C" cx="711.328" cy="185.523" r="2.275"/>
		<circle fill="#455727" cx="688.973" cy="124.024" r="2.275"/>
	</g>
	<g>
		<path fill="#597333" d="M343.878,216.069c-4.289,0-7.766,3.478-7.766,7.766h15.531
			C351.644,219.547,348.167,216.069,343.878,216.069z"/>
		<path fill="#414D21" d="M351.038,218.731c-2.819,0-5.104,2.285-5.104,5.104h10.207
			C356.141,221.017,353.856,218.731,351.038,218.731z"/>
	</g>
	<g>
		<path fill="#6E4E43" d="M761.277,178.779v53.363c0,1.847,2.273,3.344,5.076,3.344s5.074-1.497,5.074-3.344v-53.363H761.277z"/>
		<path fill="#4F352F" d="M771.428,178.779v53.363c0,1.847-2.271,3.344-5.074,3.344v-56.707H771.428z"/>
		<ellipse fill="#5C7634" cx="766.353" cy="146.594" rx="33.647" ry="63.326"/>
		<path fill="#455727" d="M766.354,83.27v126.65c18.582,0,33.646-28.352,33.646-63.326C800,111.621,784.936,83.27,766.354,83.27z"/>
		<circle fill="#405728" cx="750.751" cy="185.015" r="3.239"/>
		<circle fill="#405728" cx="759.472" cy="161.493" r="3.239"/>
		<circle fill="#405728" cx="739.081" cy="144.226" r="3.239"/>
		<circle fill="#405728" cx="756.231" cy="121.794" r="3.239"/>
		<circle fill="#5F7835" cx="773.229" cy="97.271" r="3.239"/>
		<circle fill="#5F7835" cx="786.417" cy="113.295" r="3.239"/>
		<circle fill="#5F7835" cx="773.229" cy="131.965" r="3.239"/>
		<circle fill="#5F7835" cx="786.417" cy="142.554" r="3.239"/>
		<circle fill="#5F7835" cx="772.13" cy="167.973" r="3.239"/>
		<circle fill="#5F7835" cx="782.579" cy="190.125" r="3.239"/>
		<circle fill="#405728" cx="750.751" cy="102.566" r="3.239"/>
	</g>
	<g>
		<path fill="#597333" d="M771.457,230.383c-2.82,0-5.104,2.285-5.104,5.104h10.207
			C776.561,232.668,774.275,230.383,771.457,230.383z"/>
		<path fill="#415224" d="M781.277,226.879c-4.752,0-8.605,3.854-8.605,8.607h17.213
			C789.885,230.732,786.031,226.879,781.277,226.879z"/>
	</g>
	<g>
		<path fill="#F5F6F6" d="M533.473,222.791c-4.518,0-8.178,3.661-8.178,8.178h16.355
			C541.65,226.452,537.988,222.791,533.473,222.791z"/>
		<path fill="#E1E1E0" d="M541.65,230.969c0-4.517-3.662-8.178-8.178-8.178v8.178H541.65z"/>
	</g>
	<g>
		<path fill="#F5F6F6" d="M146.918,216.746c-4.517,0-8.178,3.662-8.178,8.179h16.356
			C155.097,220.408,151.435,216.746,146.918,216.746z"/>
		<path fill="#E1E1E0" d="M155.097,224.925c0-4.517-3.662-8.179-8.178-8.179v8.179H155.097z"/>
	</g>
	<g>
		<path fill="#F5F6F6" d="M635.299,218.682c-2.379,0-4.309,1.929-4.309,4.308h8.615C639.605,220.61,637.678,218.682,635.299,218.682
			z"/>
		<path fill="#E1E1E0" d="M639.605,222.989c0-2.379-1.928-4.308-4.307-4.308v4.308H639.605z"/>
	</g>
	<g>
		<path fill="#F5F6F6" d="M199.241,210.568c-2.379,0-4.308,1.929-4.308,4.309h8.615C203.549,212.497,201.62,210.568,199.241,210.568
			z"/>
		<path fill="#E1E1E0" d="M203.549,214.877c0-2.38-1.929-4.309-4.308-4.309v4.309H203.549z"/>
	</g>
	<g>
		<path fill="#F5F6F6" d="M718.582,213.359c-3.463,0-6.271,2.807-6.271,6.27h12.541
			C724.852,216.166,722.045,213.359,718.582,213.359z"/>
		<path fill="#E1E1E0" d="M724.852,219.629c0-3.463-2.807-6.27-6.27-6.27v6.27H724.852z"/>
	</g>
	<g>
		<g>
			<path fill="#6E4E43" d="M267.697,135.793v9.396c0,0.326,0.4,0.59,0.894,0.59s0.894-0.264,0.894-0.59v-9.396H267.697z"/>
			<path fill="#5E4138" d="M269.484,135.793v9.396c0,0.326-0.4,0.59-0.894,0.59v-9.986H269.484z"/>
		</g>
		<polygon fill="#566E31" points="268.591,114.935 260.392,140.785 276.79,140.785 		"/>
		<polygon fill="#3C4A1F" points="276.79,140.785 268.591,114.935 268.591,140.785 		"/>
	</g>
	<g>
		<g>
			<path fill="#6E4E43" d="M198.588,133.318v6.869c0,0.236,0.292,0.43,0.653,0.43c0.361,0,0.653-0.193,0.653-0.43v-6.869H198.588z"
				/>
			<path fill="#5E4138" d="M199.895,133.318v6.869c0,0.236-0.292,0.43-0.653,0.43v-7.299H199.895z"/>
		</g>
		<polygon fill="#566E31" points="199.241,118.074 193.25,136.968 205.233,136.968 		"/>
		<polygon fill="#3E4D21" points="205.233,136.968 199.241,118.074 199.241,136.968 		"/>
	</g>
	<g>
		<g>
			<path fill="#6E4E43" d="M324.367,181.072v9.398c0,0.324,0.4,0.588,0.894,0.588s0.894-0.264,0.894-0.588v-9.398H324.367z"/>
			<path fill="#5E4138" d="M326.154,181.072v9.398c0,0.324-0.4,0.588-0.894,0.588v-9.986H326.154z"/>
		</g>
		<polygon fill="#6B8F3C" points="325.261,160.215 317.062,186.066 333.459,186.066 		"/>
		<polygon fill="#35421B" points="333.459,186.066 325.261,160.215 325.261,186.066 		"/>
	</g>
	<g>
		<g>
			<path fill="#6E4E43" d="M659.215,192.322v9.396c0,0.326,0.4,0.59,0.895,0.59c0.492,0,0.893-0.264,0.893-0.59v-9.396H659.215z"/>
			<path fill="#5E4138" d="M661.002,192.322v9.396c0,0.326-0.4,0.59-0.893,0.59v-9.986H661.002z"/>
		</g>
		<polygon fill="#6B8F3C" points="660.109,171.464 651.91,197.314 668.307,197.314 		"/>
		<polygon fill="#3A4A20" points="668.307,197.314 660.109,171.464 660.109,197.314 		"/>
	</g>
	<g>
		<g>
			<path fill="#6E4E43" d="M129.648,165.65v9.398c0,0.324,0.4,0.588,0.894,0.588c0.493,0,0.894-0.264,0.894-0.588v-9.398H129.648z"
				/>
			<path fill="#5E4138" d="M131.436,165.65v9.398c0,0.324-0.4,0.588-0.894,0.588v-9.986H131.436z"/>
		</g>
		<polygon fill="#566E31" points="130.542,144.793 122.343,170.645 138.74,170.645 		"/>
		<polygon fill="#3C491F" points="138.74,170.645 130.542,144.793 130.542,170.645 		"/>
	</g>
	<g>
		<g>
			<path fill="#6E4E43" d="M12.407,163.709v9.396c0,0.326,0.4,0.59,0.894,0.59s0.894-0.264,0.894-0.59v-9.396H12.407z"/>
			<path fill="#5E4138" d="M14.194,163.709v9.396c0,0.326-0.4,0.59-0.894,0.59v-9.986H14.194z"/>
		</g>
		<polygon fill="#587132" points="13.3,142.851 5.102,168.702 21.499,168.702 		"/>
		<polygon fill="#485C29" points="21.499,168.702 13.3,142.851 13.3,168.702 		"/>
	</g>
	<g>
		<g>
			<path fill="#6E4E43" d="M232.217,178.601v14.694c0,0.509,0.626,0.921,1.398,0.921c0.771,0,1.397-0.412,1.397-0.921v-14.694
				H232.217z"/>
			<path fill="#5E4138" d="M235.012,178.601v14.694c0,0.509-0.625,0.921-1.397,0.921v-15.615H235.012z"/>
		</g>
		<polygon fill="#566E31" points="233.615,145.984 220.794,186.408 246.435,186.408 		"/>
		<polygon fill="#3C4A1F" points="246.435,186.408 233.615,145.984 233.615,186.408 		"/>
	</g>
	<g>
		<path fill="#6E4E43" d="M31.229,183.29l-0.573,27.969c-0.02,0.968,1.155,1.777,2.624,1.807c1.469,0.03,2.676-0.73,2.696-1.697
			l0.574-27.969L31.229,183.29z"/>
		<path fill="#4F352F" d="M36.549,183.399l-0.574,27.969c-0.02,0.967-1.227,1.728-2.696,1.697l0.609-29.721L36.549,183.399z"/>
		
			<ellipse transform="matrix(0.9998 0.0205 -0.0205 0.9998 3.4219 -0.6672)" fill="#637D36" cx="34.235" cy="166.476" rx="17.64" ry="33.197"/>
		<path fill="#495C29" d="M34.915,133.285l-1.361,66.381c9.74,0.2,17.94-14.498,18.316-32.828
			C52.246,148.507,44.655,133.484,34.915,133.285z"/>
		<circle fill="#4B5F2B" cx="25.644" cy="186.445" r="1.698"/>
		<circle fill="#4B5F2B" cx="30.468" cy="174.211" r="1.698"/>
		<circle fill="#4B5F2B" cx="19.967" cy="164.941" r="1.698"/>
		<circle fill="#4B5F2B" cx="29.197" cy="153.368" r="1.698"/>
		<circle fill="#556C31" cx="38.369" cy="140.698" r="1.698"/>
		<circle fill="#556C31" cx="45.108" cy="149.238" r="1.698"/>
		<circle fill="#556C31" cx="37.996" cy="158.881" r="1.698"/>
		<circle fill="#556C31" cx="44.794" cy="164.573" r="1.698"/>
		<circle fill="#556C31" cx="37.033" cy="177.742" r="1.698"/>
		<circle fill="#556C31" cx="42.272" cy="189.466" r="1.698"/>
		<circle fill="#4B5F2B" cx="26.53" cy="143.231" r="1.698"/>
	</g>
	<g>
		<path fill="#587132" d="M30.069,211.488c-2.511,0-4.546,2.035-4.546,4.546h9.092C34.615,213.523,32.58,211.488,30.069,211.488z"/>
		<path fill="#455727" d="M38.818,208.367c-4.234,0-7.667,3.434-7.667,7.667h15.334C46.485,211.801,43.053,208.367,38.818,208.367z"
			/>
	</g>
	<g>
		<g>
			<path fill="#77828B" d="M627.601,209.803H399.364c-3.038,0-5.501-2.462-5.501-5.5l0,0h239.237l0,0
				C633.101,207.341,630.639,209.803,627.601,209.803z"/>
			<polygon fill="#959FA9" points="633.115,204.303 393.863,204.303 406.078,191.655 620.902,191.655 			"/>
		</g>
		<g>
			<path fill="#282827" d="M614.553,197.854h-9.968c0-1.069,0.827-1.94,1.878-2.014v-2.618c0-0.715,0.531-1.294,1.221-1.383v-5.613
				c0-0.536,0.436-0.97,0.972-0.97h0.123v-54.433h1.579v54.433h0.121c0.539,0,0.973,0.434,0.973,0.97v5.613
				c0.69,0.089,1.223,0.668,1.223,1.383v2.618C613.724,195.913,614.553,196.784,614.553,197.854z"/>
			<path fill="#1E1E1E" d="M614.553,197.854h-9.968c0-1.069,0.827-1.94,1.878-2.014v-2.618c0-0.404,0.171-0.77,0.448-1.021
				c1.638,2.443,3.906,3.737,5.464,2.968c0.105-0.051,0.204-0.113,0.299-0.182v0.853
				C613.724,195.913,614.553,196.784,614.553,197.854z"/>
			<rect x="608.778" y="130.823" fill="#1E1E1E" width="1.579" height="0.85"/>
			<path fill="#282827" d="M611.072,131.308h-3.008c-0.907,0-1.643-0.734-1.643-1.642l0,0h6.291l0,0
				C612.713,130.573,611.979,131.308,611.072,131.308z"/>
			<path fill="#FEE053" d="M614.713,125.122c0.04,1.823-0.697,3.538-1.934,4.493l-0.066,0.051h-6.291
				c-1.382-0.871-2.246-2.65-2.246-4.577c0-0.112,0.005-0.229,0.011-0.343l0.303-5.58l0.096-1.786h9.968l0.036,1.786
				L614.713,125.122z"/>
			<path fill="#FBC040" d="M614.698,125.69c-0.106,1.605-0.813,3.071-1.919,3.925l-0.066,0.051h-6.291
				c-1.199-0.759-2.013-2.198-2.203-3.829c1.34,1.466,3.163,2.37,5.177,2.37C611.474,128.207,613.348,127.245,614.698,125.69z"/>
			<path fill="#282827" d="M614.637,118.415H604.5l0.849-3.126c0.409-1.505,2.118-2.582,4.099-2.582l0,0h0.242
				c1.979,0,3.688,1.077,4.098,2.582L614.637,118.415z"/>
			<path fill="#1E1E1E" d="M613.787,115.289c-0.146-0.536-0.459-1.017-0.889-1.415c-0.265,1.157-2.105,2.055-4.344,2.055
				c-1.252,0-2.378-0.282-3.176-0.731c-0.01,0.03-0.021,0.061-0.03,0.092l-0.849,3.126h10.137L613.787,115.289z"/>
			<polygon fill="#FBC040" points="614.589,119.166 604.489,119.166 604.585,117.38 614.553,117.38 			"/>
			<path fill="#282827" d="M615.688,118.436h-12.239l0,0c-0.265-1.048,0.526-2.065,1.608-2.065h9.023
				C615.16,116.37,615.952,117.388,615.688,118.436L615.688,118.436z"/>
			<path fill="#1E1E1E" d="M614.962,116.625c-1.118,0.694-4.012,1.188-7.407,1.188c-1.495,0-2.893-0.096-4.085-0.262
				c-0.084,0.275-0.099,0.578-0.021,0.884l0,0h12.239C615.872,117.706,615.544,116.992,614.962,116.625z"/>
		</g>
		<g>
			<path fill="#282827" d="M421.193,197.854h-9.968c0-1.069,0.827-1.94,1.878-2.014v-2.618c0-0.715,0.532-1.294,1.222-1.383v-5.613
				c0-0.536,0.435-0.97,0.97-0.97h0.125v-54.433h1.579v54.433h0.12c0.54,0,0.974,0.434,0.974,0.97v5.613
				c0.689,0.089,1.222,0.668,1.222,1.383v2.618C420.365,195.913,421.193,196.784,421.193,197.854z"/>
			<path fill="#1E1E1E" d="M421.193,197.854h-9.968c0-1.069,0.827-1.94,1.878-2.014v-2.618c0-0.404,0.172-0.77,0.449-1.021
				c1.637,2.443,3.905,3.737,5.463,2.968c0.105-0.051,0.205-0.113,0.299-0.182v0.853
				C420.365,195.913,421.193,196.784,421.193,197.854z"/>
			<rect x="415.42" y="130.823" fill="#1E1E1E" width="1.579" height="0.85"/>
			<path fill="#282827" d="M417.714,131.308h-3.01c-0.906,0-1.642-0.734-1.642-1.642l0,0h6.292l0,0
				C419.354,130.573,418.62,131.308,417.714,131.308z"/>
			<path fill="#FEE053" d="M421.354,125.122c0.04,1.823-0.696,3.538-1.934,4.493l-0.065,0.051h-6.291
				c-1.382-0.871-2.246-2.65-2.246-4.577c0-0.112,0.003-0.229,0.011-0.343l0.302-5.58l0.096-1.786h9.968l0.036,1.786
				L421.354,125.122z"/>
			<path fill="#FBC040" d="M421.339,125.69c-0.105,1.605-0.813,3.071-1.919,3.925l-0.065,0.051h-6.291
				c-1.2-0.759-2.013-2.198-2.203-3.829c1.339,1.466,3.162,2.37,5.176,2.37C418.114,128.207,419.989,127.245,421.339,125.69z"/>
			<path fill="#282827" d="M421.277,118.415h-10.137l0.85-3.126c0.408-1.505,2.118-2.582,4.098-2.582l0,0h0.241
				c1.98,0,3.69,1.077,4.099,2.582L421.277,118.415z"/>
			<path fill="#1E1E1E" d="M420.428,115.289c-0.146-0.536-0.459-1.017-0.889-1.415c-0.263,1.157-2.105,2.055-4.343,2.055
				c-1.252,0-2.378-0.282-3.177-0.731c-0.009,0.03-0.021,0.061-0.029,0.092l-0.85,3.126h10.137L420.428,115.289z"/>
			<polygon fill="#FBC040" points="421.229,119.166 411.13,119.166 411.226,117.38 421.193,117.38 			"/>
			<path fill="#282827" d="M422.328,118.436h-12.239l0,0c-0.265-1.048,0.527-2.065,1.608-2.065h9.023
				C421.802,116.37,422.594,117.388,422.328,118.436L422.328,118.436z"/>
			<path fill="#1E1E1E" d="M421.603,116.625c-1.118,0.694-4.012,1.188-7.407,1.188c-1.495,0-2.893-0.096-4.085-0.262
				c-0.083,0.275-0.099,0.578-0.021,0.884l0,0h12.239C422.513,117.706,422.185,116.992,421.603,116.625z"/>
		</g>
	</g>
	<g>
		<g>
			<g>
				<rect x="431.095" y="76.243" fill="#F9AE60" width="164.792" height="111.832"/>
				<rect x="556.591" y="108.858" fill="#F79348" width="12.779" height="4.234"/>
				<rect x="543.912" y="102.79" fill="#F79348" width="12.78" height="4.234"/>
				<g>
					<rect x="584.6" y="87.961" fill="#F79348" width="12.321" height="5.106"/>
					<rect x="584.867" y="103.349" fill="#F79348" width="12.321" height="5.105"/>
					<rect x="576.734" y="95.681" fill="#F79348" width="14.852" height="5.105"/>
					<rect x="584.867" y="122.857" fill="#F79348" width="12.321" height="5.106"/>
					<rect x="584.867" y="140.709" fill="#F79348" width="12.321" height="5.106"/>
					<rect x="576.734" y="112.637" fill="#F79348" width="14.852" height="5.106"/>
					<rect x="580.316" y="131.253" fill="#F79348" width="11.991" height="5.105"/>
					<rect x="578.604" y="150.175" fill="#F79348" width="11.992" height="5.105"/>
				</g>
				<g>
					<rect x="430.181" y="87.961" fill="#F79348" width="12.32" height="5.106"/>
					<rect x="429.913" y="103.349" fill="#F79348" width="12.32" height="5.105"/>
					<rect x="435.515" y="95.681" fill="#F79348" width="14.852" height="5.105"/>
					<rect x="429.913" y="122.857" fill="#F79348" width="12.32" height="5.106"/>
					<rect x="429.913" y="140.709" fill="#F79348" width="12.32" height="5.106"/>
					<rect x="435.515" y="112.637" fill="#F79348" width="14.852" height="5.106"/>
					<rect x="434.794" y="131.253" fill="#F79348" width="11.99" height="5.105"/>
					<rect x="436.506" y="150.175" fill="#F79348" width="11.991" height="5.105"/>
				</g>
				<g>
					<path fill="#80391B" d="M598.651,165.159v26.807h-170.93v-26.807c0-1.849,1.495-3.344,3.344-3.344h164.242
						c0.196,0,0.391,0.019,0.579,0.051c0.285,0.047,0.555,0.136,0.811,0.252C597.85,162.643,598.651,163.807,598.651,165.159z"/>
					<path fill="#904321" d="M431.854,191.966h-4.133v-26.807c0-1.847,1.497-3.344,3.343-3.344h0.79V191.966z"/>
					<rect x="432.645" y="161.815" fill="#904321" width="4.134" height="30.15"/>
					<rect x="437.569" y="161.815" fill="#904321" width="4.133" height="30.15"/>
					<rect x="442.492" y="161.815" fill="#904321" width="4.134" height="30.15"/>
					<rect x="447.416" y="161.815" fill="#904321" width="4.133" height="30.15"/>
					<rect x="452.34" y="161.815" fill="#904321" width="4.133" height="30.15"/>
					<rect x="457.264" y="161.815" fill="#904321" width="4.133" height="30.15"/>
					<rect x="462.187" y="161.815" fill="#904321" width="4.134" height="30.15"/>
					<rect x="467.11" y="161.815" fill="#904321" width="4.133" height="30.15"/>
					<rect x="472.033" y="161.815" fill="#904321" width="4.135" height="30.15"/>
					<rect x="476.958" y="161.815" fill="#904321" width="4.133" height="30.15"/>
					<rect x="481.881" y="161.815" fill="#904321" width="4.134" height="30.15"/>
					<rect x="486.805" y="161.815" fill="#904321" width="4.134" height="30.15"/>
					<rect x="491.729" y="161.815" fill="#904321" width="4.133" height="30.15"/>
					<rect x="496.652" y="161.815" fill="#904321" width="4.134" height="30.15"/>
					<rect x="501.576" y="161.815" fill="#904321" width="4.133" height="30.15"/>
					<rect x="506.499" y="161.815" fill="#904321" width="4.134" height="30.15"/>
					<rect x="511.424" y="161.815" fill="#904321" width="4.133" height="30.15"/>
					<rect x="516.347" y="161.815" fill="#904321" width="4.134" height="30.15"/>
					<rect x="521.271" y="161.815" fill="#904321" width="4.134" height="30.15"/>
					<rect x="526.194" y="161.815" fill="#904321" width="4.133" height="30.15"/>
					<rect x="531.117" y="161.815" fill="#904321" width="4.135" height="30.15"/>
					<rect x="536.041" y="161.815" fill="#904321" width="4.133" height="30.15"/>
					<rect x="540.965" y="161.815" fill="#904321" width="4.134" height="30.15"/>
					<rect x="545.889" y="161.815" fill="#904321" width="4.133" height="30.15"/>
					<rect x="550.812" y="161.815" fill="#904321" width="4.134" height="30.15"/>
					<rect x="555.735" y="161.815" fill="#904321" width="4.134" height="30.15"/>
					<rect x="560.66" y="161.815" fill="#904321" width="4.133" height="30.15"/>
					<rect x="565.583" y="161.815" fill="#904321" width="4.134" height="30.15"/>
					<rect x="570.508" y="161.815" fill="#904321" width="4.131" height="30.15"/>
					<rect x="575.43" y="161.815" fill="#904321" width="4.134" height="30.15"/>
					<rect x="580.355" y="161.815" fill="#904321" width="4.131" height="30.15"/>
					<rect x="585.277" y="161.815" fill="#904321" width="4.133" height="30.15"/>
					<rect x="590.202" y="161.815" fill="#904321" width="4.132" height="30.15"/>
					<path fill="#904321" d="M599.258,165.159v26.807h-4.133v-30.15h0.788c0.496,0,0.971,0.109,1.393,0.303
						C598.459,162.646,599.258,163.807,599.258,165.159z"/>
					<polygon fill="#D06F3B" points="432.949,162.119 436.778,162.119 436.778,161.815 432.645,161.815 432.645,191.966 
						432.949,191.966 					"/>
					<polygon fill="#D06F3B" points="437.873,162.119 441.702,162.119 441.702,161.815 437.569,161.815 437.569,191.966 
						437.873,191.966 					"/>
					<polygon fill="#D06F3B" points="442.796,162.119 446.626,162.119 446.626,161.815 442.492,161.815 442.492,191.966 
						442.796,191.966 					"/>
					<polygon fill="#D06F3B" points="447.72,162.119 451.549,162.119 451.549,161.815 447.416,161.815 447.416,191.966 
						447.72,191.966 					"/>
					<polygon fill="#D06F3B" points="452.644,162.119 456.473,162.119 456.473,161.815 452.34,161.815 452.34,191.966 
						452.644,191.966 					"/>
					<polygon fill="#D06F3B" points="457.567,162.119 461.396,162.119 461.396,161.815 457.264,161.815 457.264,191.966 
						457.567,191.966 					"/>
					<polygon fill="#D06F3B" points="462.49,162.119 466.32,162.119 466.32,161.815 462.187,161.815 462.187,191.966 
						462.49,191.966 					"/>
					<polygon fill="#D06F3B" points="467.414,162.119 471.243,162.119 471.243,161.815 467.11,161.815 467.11,191.966 
						467.414,191.966 					"/>
					<polygon fill="#D06F3B" points="472.338,162.119 476.168,162.119 476.168,161.815 472.033,161.815 472.033,191.966 
						472.338,191.966 					"/>
					<polygon fill="#D06F3B" points="477.262,162.119 481.091,162.119 481.091,161.815 476.958,161.815 476.958,191.966 
						477.262,191.966 					"/>
					<polygon fill="#D06F3B" points="482.186,162.119 486.015,162.119 486.015,161.815 481.881,161.815 481.881,191.966 
						482.186,191.966 					"/>
					<polygon fill="#D06F3B" points="487.108,162.119 490.938,162.119 490.938,161.815 486.805,161.815 486.805,191.966 
						487.108,191.966 					"/>
					<polygon fill="#D06F3B" points="492.032,162.119 495.861,162.119 495.861,161.815 491.729,161.815 491.729,191.966 
						492.032,191.966 					"/>
					<polygon fill="#D06F3B" points="496.955,162.119 500.785,162.119 500.785,161.815 496.651,161.815 496.651,191.966 
						496.955,191.966 					"/>
					<polygon fill="#D06F3B" points="501.88,162.119 505.709,162.119 505.709,161.815 501.576,161.815 501.576,191.966 
						501.88,191.966 					"/>
					<polygon fill="#D06F3B" points="506.803,162.119 510.633,162.119 510.633,161.815 506.499,161.815 506.499,191.966 
						506.803,191.966 					"/>
					<polygon fill="#D06F3B" points="511.728,162.119 515.557,162.119 515.557,161.815 511.423,161.815 511.423,191.966 
						511.728,191.966 					"/>
					<polygon fill="#D06F3B" points="516.65,162.119 520.479,162.119 520.479,161.815 516.347,161.815 516.347,191.966 
						516.65,191.966 					"/>
					<polygon fill="#D06F3B" points="521.574,162.119 525.404,162.119 525.404,161.815 521.271,161.815 521.271,191.966 
						521.574,191.966 					"/>
					<polygon fill="#D06F3B" points="526.498,162.119 530.327,162.119 530.327,161.815 526.194,161.815 526.194,191.966 
						526.498,191.966 					"/>
					<polygon fill="#D06F3B" points="531.422,162.119 535.251,162.119 535.251,161.815 531.117,161.815 531.117,191.966 
						531.422,191.966 					"/>
					<polygon fill="#D06F3B" points="536.346,162.119 540.174,162.119 540.174,161.815 536.041,161.815 536.041,191.966 
						536.346,191.966 					"/>
					<polygon fill="#D06F3B" points="541.269,162.119 545.098,162.119 545.098,161.815 540.965,161.815 540.965,191.966 
						541.269,191.966 					"/>
					<polygon fill="#D06F3B" points="546.193,162.119 550.021,162.119 550.021,161.815 545.888,161.815 545.888,191.966 
						546.193,191.966 					"/>
					<polygon fill="#D06F3B" points="551.115,162.119 554.945,162.119 554.945,161.815 550.812,161.815 550.812,191.966 
						551.115,191.966 					"/>
					<polygon fill="#D06F3B" points="556.04,162.119 559.868,162.119 559.868,161.815 555.735,161.815 555.735,191.966 
						556.04,191.966 					"/>
					<polygon fill="#D06F3B" points="560.963,162.119 564.793,162.119 564.793,161.815 560.659,161.815 560.659,191.966 
						560.963,191.966 					"/>
					<polygon fill="#D06F3B" points="565.887,162.119 569.717,162.119 569.717,161.815 565.583,161.815 565.583,191.966 
						565.887,191.966 					"/>
					<polygon fill="#D06F3B" points="570.81,162.119 574.64,162.119 574.64,161.815 570.506,161.815 570.506,191.966 
						570.81,191.966 					"/>
					<polygon fill="#D06F3B" points="579.563,161.815 579.563,162.118 575.734,162.118 575.734,191.966 575.43,191.966 
						575.43,161.815 					"/>
					<polygon fill="#D06F3B" points="584.486,161.815 584.486,162.118 580.656,162.118 580.656,191.966 580.355,191.966 
						580.355,161.815 					"/>
					<polygon fill="#D06F3B" points="589.41,161.815 589.41,162.118 585.581,162.118 585.581,191.966 585.277,191.966 
						585.277,161.815 					"/>
					<polygon fill="#D06F3B" points="594.334,161.815 594.334,162.118 590.505,162.118 590.505,191.966 590.202,191.966 
						590.202,161.815 					"/>
					<path fill="#D06F3B" d="M597.306,162.118h-1.878v29.848h-0.303v-30.15h0.788C596.409,161.815,596.884,161.925,597.306,162.118z
						"/>
				</g>
				<g>
					<path opacity="0.33" fill="#904321" d="M599.258,165.159v26.807h-26.756l-1.692-0.452l-0.302-0.08l-0.792-0.211l-3.829-1.021
						l-0.304-0.08l-0.791-0.212l-3.829-1.021l-0.303-0.081l-0.792-0.211l-1.95-0.521l-1.879-0.504l-0.303-0.08l-0.791-0.211
						l-3.83-1.021l-0.303-0.08l-0.791-0.213l-3.83-1.02l-0.302-0.081l-0.723-0.193v-72.942h38.47l12.25,7.294v42.792h0.026
						c0.496,0,0.971,0.109,1.393,0.303C598.459,162.646,599.258,163.807,599.258,165.159z"/>
					<rect x="545.948" y="111.728" fill="#904321" width="37.687" height="72.944"/>
					<rect x="549.158" y="115.132" fill="#C7602C" width="31.268" height="69.54"/>
					<rect x="549.158" y="115.132" fill="#B55727" width="31.268" height="69.54"/>
					<rect x="550.138" y="115.679" fill="#C7602C" width="29.309" height="68.991"/>
					<rect x="552.282" y="117.806" fill="#80B99F" width="25.02" height="33.554"/>
					<g>
						<polygon fill="#97D1B4" points="559.475,117.806 552.282,126.351 552.282,123.805 557.33,117.806 						"/>
						<polygon fill="#97D1B4" points="562.506,117.806 552.282,129.954 552.282,128.382 561.185,117.806 						"/>
						<polygon fill="#97D1B4" points="575.854,117.806 552.282,145.815 552.282,142.124 572.746,117.806 						"/>
						<polygon fill="#97D1B4" points="577.302,119.023 577.302,121.3 552.282,151.03 552.282,148.759 						"/>
						<polygon fill="#97D1B4" points="577.302,134.542 577.302,137.143 565.339,151.359 563.154,151.359 						"/>
						<polygon fill="#97D1B4" points="577.302,139.218 577.302,140.818 568.436,151.359 567.086,151.359 						"/>
					</g>
					<rect x="552.282" y="134.583" fill="#61A383" width="25.02" height="1.557"/>
					<rect x="552.282" y="117.807" fill="#61A383" width="25.019" height="0.729"/>
					<rect x="564.014" y="117.077" fill="#C7602C" width="1.556" height="35.013"/>
					<rect x="550.476" y="133.806" fill="#C7602C" width="28.631" height="1.556"/>
					<g>
						<rect x="552.282" y="154.766" fill="#FBB53C" width="1.729" height="8.053"/>
						<polygon fill="#FCC068" points="554.012,155.899 554.012,157.063 552.282,160.018 552.282,158.854 						"/>
						<polygon fill="#FCC068" points="554.012,159.139 554.012,160.294 552.534,162.818 552.282,162.818 552.282,162.093 						"/>
					</g>
					<polygon fill="#EF7238" points="557.257,158.792 574.717,158.792 575.332,170.942 575.332,158.009 556.642,158.009 
						556.642,170.942 					"/>
				</g>
				<g>
					<rect x="431.095" y="77.616" fill="#ED9143" width="164.792" height="4.98"/>
					<rect x="427.302" y="75.956" fill="#FFE2A4" width="172.375" height="4.98"/>
					<rect x="427.302" y="75.956" fill="#F7D48C" width="172.375" height="1.246"/>
					<rect x="422.38" y="66.618" fill="#FFE2A4" width="182.22" height="9.338"/>
				</g>
				<g>
					<path fill="#92A23A" d="M534.721,182.458c0,4.107-3.326,7.433-7.433,7.433c-2.56,0-4.818-1.294-6.156-3.264
						c-1.667,2.688-4.643,4.479-8.038,4.479c-4.085,0-7.563-2.593-8.885-6.222c-1.59,2.986-4.729,5.018-8.348,5.018
						c-4.085,0-7.564-2.593-8.885-6.222c-1.59,2.987-4.73,5.019-8.348,5.019c-4.085,0-7.564-2.594-8.886-6.222
						c-1.59,2.986-4.729,5.019-8.348,5.019c-2.91,0-5.514-1.316-7.246-3.389c-1.715,2.4-4.523,3.969-7.696,3.969
						c-4.237,0-7.826-2.79-9.026-6.639c-0.183-0.586-0.311-1.199-0.376-1.83c-0.033-0.325-0.051-0.653-0.051-0.985
						c0-2.644,1.091-5.033,2.841-6.747c-0.503-0.78-0.795-1.706-0.795-2.702c0-2.771,2.243-5.015,5.016-5.015
						c0.641,0,1.254,0.124,1.819,0.346c1.524-3.173,4.771-5.364,8.527-5.364c3.366,0,6.316,1.761,7.994,4.413
						c0.919-1.062,2.271-1.736,3.785-1.736c1.682,0,3.167,0.831,4.074,2.101c0.555-0.208,1.148-0.328,1.772-0.328
						c1.769,0,3.319,0.919,4.209,2.301c0.704-0.726,1.688-1.178,2.783-1.178c1.335,0,2.516,0.676,3.213,1.707
						c0.7-0.696,1.667-1.127,2.731-1.127c1.547,0,2.881,0.908,3.501,2.218c0.612-1.894,2.389-3.265,4.486-3.265
						c2.214,0,4.067,1.524,4.574,3.578c0.43-0.223,0.915-0.351,1.429-0.351c1.474,0,2.699,1.025,3.02,2.4
						c0.887-0.795,2.05-1.28,3.333-1.28c1.032,0,1.992,0.313,2.787,0.847c0.244-3.775,3.374-6.762,7.211-6.762
						c3.753,0,6.835,2.852,7.2,6.506h0.035c2.455,0,4.494,1.77,4.917,4.104c0.244-0.11,0.511-0.179,0.799-0.179
						c1.055,0,1.914,0.856,1.914,1.914c0,0.194-0.04,0.376-0.091,0.552c1.831,0.743,3.301,2.198,4.062,4.022
						c0.194,0.459,0.339,0.944,0.435,1.444C534.674,181.499,534.721,181.973,534.721,182.458z"/>
					<circle fill="#92A23A" cx="460.272" cy="157.958" r="1.915"/>
					<circle fill="#92A23A" cx="526.007" cy="166.497" r="1.575"/>
					<circle fill="#92A23A" cx="503.08" cy="165.273" r="1.012"/>
					<circle fill="#92A23A" cx="532.747" cy="172.202" r="1.012"/>
					<circle fill="#92A23A" cx="436.073" cy="170.573" r="1.012"/>
					<path fill="#87973A" d="M534.721,182.458c0,4.107-3.326,7.433-7.433,7.433c-2.56,0-4.818-1.294-6.156-3.264
						c-1.667,2.688-4.643,4.479-8.038,4.479c-4.085,0-7.563-2.593-8.885-6.222c-1.59,2.986-4.729,5.018-8.348,5.018
						c-4.085,0-7.564-2.593-8.885-6.222c-1.59,2.987-4.73,5.019-8.348,5.019c-4.085,0-7.564-2.594-8.886-6.222
						c-1.59,2.986-4.729,5.019-8.348,5.019c-2.91,0-5.514-1.316-7.246-3.389c-1.715,2.4-4.523,3.969-7.696,3.969
						c-4.237,0-7.826-2.79-9.026-6.639c0.471-0.281,1.018-0.437,1.598-0.437h95.077c0.164,0,0.324,0.011,0.481,0.04
						C534.674,181.499,534.721,181.973,534.721,182.458z"/>
					<path fill="#F7CF9B" d="M534.101,182.458h-95.078c-1.78,0-3.224,1.487-3.224,3.322v7.452h101.525v-7.452
						C537.324,183.945,535.881,182.458,534.101,182.458z"/>
					<path fill="#F6E3CC" d="M534.101,182.458h-95.078c-1.78,0-3.224,1.487-3.224,3.322v0.23c0-1.836,1.443-3.324,3.224-3.324
						h95.078c1.78,0,3.224,1.488,3.224,3.324v-0.23C537.324,183.945,535.881,182.458,534.101,182.458z"/>
					<path fill="#F1C48E" d="M537.325,185.78v7.452H435.8v-5.303c10.659,1.815,26.515,2.968,44.214,2.968
						c28.022,0,51.415-2.888,56.904-6.732C537.177,184.643,537.325,185.193,537.325,185.78z"/>
					<circle fill="#B1BC36" cx="453.897" cy="168.806" r="1.52"/>
					<circle fill="#B1BC36" cx="475.438" cy="171.189" r="1.52"/>
					<circle fill="#B1BC36" cx="502.067" cy="177.525" r="1.52"/>
					<circle fill="#B1BC36" cx="519.673" cy="166.85" r="1.083"/>
					<circle fill="#B1BC36" cx="528.261" cy="176.702" r="1.083"/>
					<circle fill="#B1BC36" cx="463.558" cy="175.818" r="0.823"/>
					<circle fill="#B1BC36" cx="483.948" cy="177.525" r="0.824"/>
					<circle fill="#B1BC36" cx="510.632" cy="171.585" r="0.824"/>
					<circle fill="#B1BC36" cx="518.413" cy="177.525" r="0.823"/>
					<circle fill="#B1BC36" cx="482.783" cy="168.806" r="0.824"/>
					<circle fill="#B1BC36" cx="458.357" cy="162.818" r="0.823"/>
					<circle fill="#B1BC36" cx="444.56" cy="178.35" r="0.823"/>
				</g>
				<g>
					<rect x="439.749" y="100.786" fill="#723316" width="95.502" height="54.708"/>
					<rect x="439.749" y="100.058" fill="#904321" width="95.502" height="54.706"/>
					<rect x="443.266" y="103.461" fill="#80B99F" width="88.469" height="47.898"/>
					<polygon fill="#97D1B4" points="472.465,103.461 443.266,122.539 443.266,115.293 461.375,103.461 					"/>
					<polygon fill="#97D1B4" points="531.734,103.461 531.734,103.757 458.875,151.359 446.453,151.359 519.768,103.461 					"/>
					<polygon fill="#97D1B4" points="531.734,105.901 531.734,109.924 468.311,151.359 462.154,151.359 					"/>
					<polygon fill="#97D1B4" points="516.198,103.461 443.266,151.114 443.266,148.7 512.503,103.461 					"/>
					<polygon fill="#97D1B4" points="482.782,103.461 443.266,129.279 443.266,125.895 477.607,103.461 					"/>
					<polygon fill="#97D1B4" points="489.11,103.461 443.266,133.415 443.266,131.54 486.244,103.461 					"/>
					<rect x="443.265" y="103.461" fill="#61A383" width="88.472" height="1.276"/>
				</g>
				<polygon fill="#DCAA8C" points="585.498,182.462 585.498,185.096 544.088,185.096 544.088,182.462 545.948,180.536 
					583.635,180.536 				"/>
				<polygon fill="#FCF4C9" points="585.498,182.462 544.088,182.462 545.948,180.536 583.635,180.536 				"/>
				<polygon fill="#DCAA8C" points="587.646,186.56 587.646,189.467 541.939,189.467 541.939,186.56 543.993,184.434 
					585.59,184.434 				"/>
				<polygon fill="#FCF4C9" points="587.646,186.56 541.939,186.56 543.993,184.434 585.59,184.434 				"/>
				<polygon fill="#DCAA8C" points="589.873,190.898 589.873,194.088 539.713,194.088 539.713,190.898 541.966,188.565 
					587.615,188.565 				"/>
				<polygon fill="#FCF4C9" points="589.873,190.898 539.713,190.898 541.966,188.565 587.615,188.565 				"/>
				<path opacity="0.71" fill="#D1D2D3" d="M535.151,95.681h-7.407h-7.305h-7.272h-7.291h-7.291h-7.318h-7.321h-7.292h-7.312h-7.264
					h-7.317h-7.322h-7.285l-1.847,16.695l0.984,6.631c0.371,2.494,2.266,4.516,4.232,4.516h0.896c1.83,0,3.074-1.749,2.941-4
					c0.537,2.251,2.302,4,4.131,4h0.896c1.828,0,3.073-1.749,2.941-4c0.536,2.251,2.301,4,4.13,4h0.896c1.829,0,3.075-1.749,2.942-4
					c0.535,2.251,2.302,4,4.13,4h0.896c1.829,0,3.073-1.749,2.94-4.001c0.537,2.252,2.303,4.001,4.132,4.001h0.896
					c1.828,0,3.073-1.749,2.94-4.001c0.537,2.252,2.302,4.001,4.132,4.001h0.896c1.829,0,3.073-1.749,2.94-4.001
					c0.537,2.252,2.303,4.001,4.132,4.001h0.896c1.829,0,3.073-1.749,2.941-4.001c0.536,2.252,2.301,4.001,4.13,4.001h0.896
					c1.829,0,3.074-1.749,2.941-4c0.536,2.251,2.301,4,4.131,4h0.896c1.828,0,3.074-1.749,2.94-4c0.537,2.251,2.303,4,4.132,4h0.895
					c1.83,0,3.075-1.749,2.943-4c0.535,2.251,2.301,4,4.129,4h0.896c1.83,0,3.075-1.749,2.942-4.001
					c0.536,2.252,2.302,4.001,4.131,4.001h0.896c1.828,0,3.074-1.749,2.941-4.001c0.536,2.252,2.302,4.001,4.13,4.001h0.896
					c1.966,0,3.26-2.021,2.889-4.516l-0.985-6.631h0.024L535.151,95.681z"/>
				<g>
					<polygon fill="#EB5425" points="539.363,108.828 435.827,108.828 440.151,95.681 535.039,95.681 					"/>
					<g>
						<path fill="#DD5026" d="M440.279,117.606h-0.895c-1.965,0-3.558-1.593-3.558-3.557v-5.222h8.009v5.222
							C443.836,116.014,442.243,117.606,440.279,117.606z"/>
						<path fill="#F2F2F2" d="M448.238,117.606h-0.896c-1.964,0-3.557-1.593-3.557-3.557v-5.222h8.008v5.222
							C451.794,116.014,450.202,117.606,448.238,117.606z"/>
						<path fill="#DD5026" d="M456.196,117.606h-0.895c-1.965,0-3.558-1.593-3.558-3.557v-5.222h8.009v5.222
							C459.753,116.014,458.16,117.606,456.196,117.606z"/>
						<path fill="#F2F2F2" d="M464.154,117.606h-0.895c-1.965,0-3.556-1.593-3.556-3.557v-5.222h8.008v5.222
							C467.712,116.014,466.119,117.606,464.154,117.606z"/>
						<path fill="#DD5026" d="M472.113,117.606h-0.896c-1.964,0-3.556-1.593-3.556-3.557v-5.222h8.009v5.222
							C475.671,116.014,474.077,117.606,472.113,117.606z"/>
						<path fill="#F2F2F2" d="M480.072,117.606h-0.895c-1.965,0-3.558-1.593-3.558-3.557v-5.222h8.008v5.222
							C483.628,116.014,482.036,117.606,480.072,117.606z"/>
						<path fill="#DD5026" d="M488.031,117.606h-0.896c-1.963,0-3.556-1.593-3.556-3.557v-5.222h8.008v5.222
							C491.587,116.014,489.995,117.606,488.031,117.606z"/>
						<path fill="#F2F2F2" d="M495.988,117.606h-0.894c-1.965,0-3.558-1.593-3.558-3.557v-5.222h8.009v5.222
							C499.546,116.014,497.953,117.606,495.988,117.606z"/>
						<path fill="#DD5026" d="M503.948,117.606h-0.896c-1.965,0-3.557-1.593-3.557-3.557v-5.222h8.008v5.222
							C507.504,116.014,505.912,117.606,503.948,117.606z"/>
						<path fill="#F2F2F2" d="M511.906,117.606h-0.896c-1.964,0-3.556-1.593-3.556-3.557v-5.222h8.008v5.222
							C515.463,116.014,513.871,117.606,511.906,117.606z"/>
						<path fill="#DD5026" d="M519.864,117.606h-0.894c-1.965,0-3.558-1.593-3.558-3.557v-5.222h8.009v5.222
							C523.422,116.014,521.829,117.606,519.864,117.606z"/>
						<path fill="#F2F2F2" d="M527.824,117.606h-0.896c-1.965,0-3.558-1.593-3.558-3.557v-5.222h8.009v5.222
							C531.38,116.014,529.788,117.606,527.824,117.606z"/>
						<path fill="#DD5026" d="M535.782,117.606h-0.896c-1.963,0-3.557-1.593-3.557-3.557v-5.222h8.009v5.222
							C539.339,116.014,537.746,117.606,535.782,117.606z"/>
					</g>
					<polygon fill="#FFFFFF" points="531.295,108.828 443.773,108.828 447.428,95.681 527.641,95.681 					"/>
					<polygon fill="#EB5425" points="523.334,108.828 451.754,108.828 454.743,95.681 520.346,95.681 					"/>
					<polygon fill="#FFFFFF" points="515.404,108.828 459.726,108.828 462.051,95.681 513.079,95.681 					"/>
					<polygon fill="#EB5425" points="507.462,108.828 467.643,108.828 469.306,95.681 505.798,95.681 					"/>
					<polygon fill="#FFFFFF" points="499.514,108.828 475.611,108.828 476.608,95.681 498.515,95.681 					"/>
					<polygon fill="#EB5425" points="491.538,108.828 483.559,108.828 483.893,95.681 491.205,95.681 					"/>
				</g>
			</g>
			<g>
				<path fill="#B4BBC0" d="M547.828,34.315c-4.861-14.295-18.398-24.576-34.339-24.576c-15.939,0-29.477,10.281-34.337,24.576
					h-48.609v32.39h165.894v-32.39H547.828z"/>
				<path fill="#3C4F5B" d="M545.317,36.618c-4.059-13.738-16.771-23.761-31.828-23.761c-15.056,0-27.769,10.022-31.828,23.761
					h-48.444v27.785h52.621h55.305h52.621V36.618H545.317z"/>
			</g>
			<g>
				
					<text transform="matrix(1 0 0 1 445.0273 55.5977)" fill="#FFFFFF" font-family="'OstrichSans-Black'" font-size="12" letter-spacing="1">DWARKESH BAKERS</text>
			</g>
			<g>
				<path fill="#C7602C" d="M526.55,31.126c0,0.075-0.009,0.151-0.012,0.227v0.154c0,3.163-2.564,5.727-5.724,5.727h-14.661
					c-3.159,0-5.724-2.563-5.724-5.727v-0.764h0.021c0.195-2.616,2.373-4.682,5.044-4.682c1.04,0,2.003,0.314,2.806,0.852
					c0.454,0.307,0.857,0.683,1.189,1.111c0.322-0.411,0.707-0.775,1.138-1.07c0.814-0.562,1.8-0.893,2.861-0.893
					c0.993,0,1.914,0.286,2.693,0.779c0.502,0.314,0.942,0.717,1.304,1.184c0.295-0.377,0.639-0.715,1.027-0.994
					c0.834-0.61,1.86-0.969,2.973-0.969c2.668,0,4.848,2.065,5.043,4.682h0.009v0.152C526.541,30.974,526.55,31.046,526.55,31.126z"
					/>
				<path fill="#F9AE60" d="M510.678,27.901c0,1.905-0.542,3.451-1.213,3.451c-0.674,0-1.217-1.546-1.217-3.451
					c0-0.344,0.018-0.676,0.053-0.988c0.454,0.307,0.857,0.683,1.189,1.111c0.322-0.411,0.707-0.775,1.138-1.07
					C510.661,27.255,510.678,27.572,510.678,27.901z"/>
				<path fill="#F9AE60" d="M518.555,27.901c0,1.905-0.543,3.451-1.214,3.451c-0.674,0-1.217-1.546-1.217-3.451
					c0-0.369,0.021-0.729,0.059-1.061c0.502,0.314,0.942,0.717,1.304,1.184c0.295-0.377,0.639-0.715,1.027-0.994
					C518.54,27.308,518.555,27.602,518.555,27.901z"/>
			</g>
			<g>
				<path fill="#FFFFFF" d="M509.365,17.109c0,0-0.011,0.035-0.035,0.101c-0.027,0.065-0.05,0.162-0.084,0.278
					c-0.06,0.237-0.113,0.575-0.08,0.957c0.015,0.189,0.052,0.39,0.113,0.587c0.063,0.201,0.148,0.379,0.271,0.576
					c0.072,0.122,0.133,0.209,0.201,0.311c0.074,0.105,0.148,0.212,0.225,0.319c0.157,0.216,0.327,0.448,0.494,0.706
					c0.16,0.26,0.317,0.55,0.418,0.865c0.106,0.312,0.152,0.641,0.155,0.947c-0.001,0.076-0.005,0.152-0.007,0.227
					c-0.001,0.104-0.013,0.141-0.02,0.213c-0.023,0.154-0.052,0.303-0.091,0.434c-0.079,0.268-0.188,0.506-0.311,0.708
					c-0.248,0.406-0.544,0.666-0.763,0.813c-0.219,0.149-0.36,0.199-0.36,0.199s0.083-0.127,0.2-0.346
					c0.114-0.219,0.255-0.533,0.339-0.915c0.043-0.188,0.075-0.395,0.084-0.606c0.004-0.11,0.004-0.211-0.002-0.312
					c-0.007-0.057-0.007-0.149-0.016-0.176l-0.021-0.17c-0.073-0.451-0.245-0.857-0.532-1.297c-0.151-0.236-0.302-0.471-0.451-0.703
					c-0.078-0.123-0.15-0.252-0.22-0.383c-0.069-0.135-0.146-0.283-0.188-0.4c-0.122-0.276-0.199-0.594-0.216-0.874
					c-0.019-0.285,0.01-0.551,0.066-0.784c0.118-0.471,0.341-0.805,0.52-1c0.088-0.101,0.17-0.169,0.224-0.21
					C509.336,17.132,509.365,17.109,509.365,17.109z"/>
				<path fill="#FFFFFF" d="M513.102,17.109c0,0-0.013,0.035-0.036,0.101c-0.026,0.065-0.051,0.162-0.083,0.278
					c-0.061,0.237-0.113,0.575-0.08,0.957c0.014,0.189,0.05,0.39,0.112,0.587c0.063,0.201,0.148,0.379,0.271,0.576
					c0.072,0.122,0.134,0.209,0.2,0.311c0.074,0.105,0.149,0.212,0.227,0.319c0.157,0.216,0.326,0.448,0.493,0.706
					c0.161,0.26,0.317,0.55,0.418,0.865c0.106,0.312,0.151,0.641,0.155,0.947c-0.002,0.076-0.004,0.152-0.007,0.227
					c0,0.104-0.013,0.141-0.021,0.213c-0.021,0.154-0.05,0.303-0.09,0.434c-0.078,0.268-0.188,0.506-0.311,0.708
					c-0.248,0.406-0.544,0.666-0.763,0.813c-0.218,0.149-0.36,0.199-0.36,0.199s0.083-0.127,0.199-0.346
					c0.115-0.219,0.256-0.533,0.34-0.915c0.043-0.188,0.074-0.395,0.084-0.606c0.005-0.11,0.005-0.211-0.002-0.312
					c-0.008-0.057-0.006-0.149-0.016-0.176l-0.022-0.17c-0.072-0.451-0.245-0.857-0.531-1.297c-0.15-0.236-0.302-0.471-0.451-0.703
					c-0.078-0.123-0.15-0.252-0.22-0.383c-0.069-0.135-0.145-0.283-0.188-0.4c-0.122-0.276-0.199-0.594-0.216-0.874
					c-0.02-0.285,0.011-0.551,0.067-0.784c0.118-0.471,0.34-0.805,0.519-1c0.089-0.101,0.169-0.169,0.223-0.21
					C513.071,17.132,513.102,17.109,513.102,17.109z"/>
				<path fill="#FFFFFF" d="M516.836,17.109c0,0-0.012,0.035-0.034,0.101c-0.028,0.065-0.052,0.162-0.085,0.278
					c-0.06,0.237-0.113,0.575-0.08,0.957c0.015,0.189,0.051,0.39,0.113,0.587c0.063,0.201,0.147,0.379,0.272,0.576
					c0.071,0.122,0.133,0.209,0.199,0.311c0.074,0.105,0.149,0.212,0.226,0.319c0.159,0.216,0.327,0.448,0.493,0.706
					c0.162,0.26,0.319,0.55,0.419,0.865c0.106,0.312,0.152,0.641,0.156,0.947c-0.003,0.076-0.006,0.152-0.007,0.227
					c-0.002,0.104-0.013,0.141-0.021,0.213c-0.022,0.154-0.051,0.303-0.091,0.434c-0.078,0.268-0.188,0.506-0.312,0.708
					c-0.248,0.406-0.543,0.666-0.762,0.813c-0.219,0.149-0.359,0.199-0.359,0.199s0.082-0.127,0.198-0.346
					c0.115-0.219,0.255-0.533,0.339-0.915c0.046-0.188,0.075-0.395,0.084-0.606c0.005-0.11,0.006-0.211-0.002-0.312
					c-0.006-0.057-0.005-0.149-0.016-0.176l-0.021-0.17c-0.073-0.451-0.245-0.857-0.531-1.297c-0.151-0.236-0.304-0.471-0.451-0.703
					c-0.079-0.123-0.151-0.252-0.22-0.383c-0.07-0.135-0.146-0.283-0.189-0.4c-0.121-0.276-0.198-0.594-0.216-0.874
					c-0.019-0.285,0.011-0.551,0.069-0.784c0.117-0.471,0.34-0.805,0.518-1c0.089-0.101,0.17-0.169,0.224-0.21
					C516.807,17.132,516.836,17.109,516.836,17.109z"/>
			</g>
		</g>
	</g>
</g>
</svg>
